<svg width="200" height="200" viewBox="0 0 200 200" fill="none" xmlns="http://www.w3.org/2000/svg">
<path d="M83.2853 83.2855C71.5733 94.9977 65.1228 110.571 65.1228 127.134C65.1228 140.888 69.5833 153.95 77.7978 164.695C77.9078 164.854 78.0256 165.006 78.1533 165.15C79.7353 167.179 81.4368 169.135 83.2853 170.983C94.9986 182.696 110.571 189.146 127.134 189.146C143.699 189.146 159.27 182.696 170.984 170.983C182.696 159.271 189.146 143.699 189.146 127.134C189.146 113.371 184.679 100.301 176.454 89.5525C176.345 89.3947 176.229 89.2412 176.098 89.0965C174.521 87.0745 172.825 85.127 170.983 83.2855C162.588 74.8912 152.207 69.2177 140.903 66.667C140.44 66.4827 139.958 66.379 139.473 66.3467C135.454 65.5397 131.326 65.1227 127.134 65.1227C110.571 65.1227 94.9983 71.5732 83.2853 83.2855ZM74.6188 128.184C74.9043 128.168 75.1898 128.154 75.4768 128.154C83.7783 128.154 90.5313 134.908 90.5313 143.209C90.5313 148.556 87.7293 153.382 83.3081 156.07C77.9878 148.039 74.8223 138.471 74.6188 128.184ZM166.544 92.4402C163.732 95.4522 159.816 97.1857 155.57 97.1857C147.268 97.1857 140.515 90.4317 140.515 82.1315C140.515 80.2242 140.872 78.362 141.556 76.6212C151.351 79.4217 159.982 84.9945 166.544 92.4402ZM132.153 74.838C131.424 77.1802 131.045 79.6332 131.045 82.132C131.045 95.6542 142.047 106.655 155.57 106.655C161.778 106.655 167.709 104.25 172.188 100.134C176.938 108.03 179.677 117.268 179.677 127.135C179.677 156.107 156.106 179.677 127.134 179.677C112.261 179.677 98.8216 173.455 89.2536 163.489C95.8608 159.008 100.001 151.496 100.001 143.209C100.001 129.687 88.9988 118.686 75.4766 118.686C75.4103 118.686 75.3453 118.692 75.2793 118.692C79.3306 93.7212 101.037 74.5925 127.134 74.5925C128.828 74.592 130.5 74.6802 132.153 74.838Z" fill="#99D7D3"/>
<path d="M62.2242 15.5893C62.2242 14.3763 62.686 13.167 63.6102 12.2405C65.4595 10.3915 68.457 10.3915 70.3062 12.2405L107.252 49.1878C109.101 51.0358 109.101 54.034 107.252 55.8828C105.403 57.7318 102.406 57.7318 100.557 55.8828L63.6105 18.937C62.686 18.0123 62.2242 16.8008 62.2242 15.5893Z" fill="#99D7D3"/>
<path d="M10.854 15.5892C10.854 14.3762 11.3163 13.1669 12.241 12.2404C14.09 10.3914 17.0885 10.3914 18.937 12.2404L72.8085 66.1129C74.6575 67.9619 74.6575 70.9594 72.8085 72.8082C70.9593 74.6572 67.9618 74.6572 66.1123 72.8082L12.241 18.9369C11.317 18.0122 10.854 16.8007 10.854 15.5892Z" fill="#99D7D3"/>
<path d="M10.854 66.9588C10.854 65.7465 11.3163 64.5353 12.2418 63.6108C14.0908 61.7618 17.0885 61.7618 18.937 63.6108L55.8823 100.557C57.7313 102.406 57.7313 105.403 55.8823 107.253C54.033 109.102 51.0353 109.102 49.186 107.253L12.241 70.3063C11.317 69.382 10.854 68.17 10.854 66.9588Z" fill="#99D7D3"/>
<path d="M122.153 143.209C122.153 153.599 130.605 162.051 140.995 162.051C151.384 162.051 159.837 153.599 159.837 143.209C159.837 132.82 151.384 124.367 140.995 124.367C130.605 124.367 122.153 132.82 122.153 143.209ZM150.369 143.209C150.369 148.377 146.164 152.583 140.996 152.583C135.827 152.583 131.622 148.378 131.622 143.209C131.622 138.041 135.827 133.836 140.996 133.836C146.163 133.836 150.369 138.041 150.369 143.209Z" fill="#99D7D3"/>
</svg>
