<svg width="201" height="200" viewBox="0 0 201 200" fill="none" xmlns="http://www.w3.org/2000/svg">
<path d="M116.923 83.2853C105.211 71.5733 89.6379 65.1228 73.0744 65.1228C59.3204 65.1228 46.2584 69.5833 35.5139 77.7978C35.3549 77.9078 35.2027 78.0256 35.0592 78.1533C33.0299 79.7353 31.0742 81.4368 29.2257 83.2853C17.5129 94.9986 11.0627 110.571 11.0627 127.134C11.0627 143.699 17.5129 159.27 29.2257 170.984C40.9379 182.696 56.5102 189.146 73.0747 189.146C86.8374 189.146 99.9077 184.679 110.656 176.454C110.814 176.345 110.968 176.229 111.112 176.098C113.134 174.521 115.082 172.825 116.923 170.983C125.318 162.588 130.991 152.207 133.542 140.903C133.726 140.44 133.83 139.958 133.862 139.473C134.669 135.454 135.086 131.326 135.086 127.134C135.086 110.571 128.636 94.9983 116.923 83.2853ZM72.0247 74.6188C72.0409 74.9043 72.0547 75.1898 72.0547 75.4768C72.0547 83.7783 65.3012 90.5313 56.9999 90.5313C51.6527 90.5313 46.8264 87.7293 44.1387 83.3081C52.1697 77.9878 61.7382 74.8223 72.0247 74.6188ZM107.769 166.544C104.757 163.732 103.023 159.816 103.023 155.57C103.023 147.268 109.777 140.515 118.077 140.515C119.985 140.515 121.847 140.872 123.588 141.556C120.787 151.351 115.214 159.982 107.769 166.544ZM125.371 132.153C123.029 131.424 120.576 131.045 118.077 131.045C104.555 131.045 93.5534 142.047 93.5534 155.57C93.5534 161.778 95.9592 167.709 100.074 172.188C92.1789 176.938 82.9412 179.677 73.0742 179.677C44.1017 179.677 20.5314 156.106 20.5314 127.134C20.5314 112.261 26.7542 98.8216 36.7197 89.2536C41.2007 95.8608 48.7124 100.001 56.9994 100.001C70.5217 100.001 81.5232 88.9988 81.5232 75.4766C81.5232 75.4103 81.5172 75.3453 81.5164 75.2793C106.488 79.3306 125.616 101.037 125.616 127.134C125.617 128.828 125.529 130.5 125.371 132.153Z" fill="white"/>
<path d="M184.62 62.2242C185.833 62.2242 187.042 62.686 187.968 63.6102C189.817 65.4595 189.817 68.457 187.968 70.3062L151.021 107.252C149.173 109.101 146.175 109.101 144.326 107.252C142.477 105.403 142.477 102.406 144.326 100.557L181.272 63.6105C182.197 62.686 183.408 62.2242 184.62 62.2242Z" fill="white"/>
<path d="M184.62 10.854C185.833 10.854 187.042 11.3163 187.968 12.241C189.817 14.09 189.817 17.0885 187.968 18.937L134.096 72.8085C132.247 74.6575 129.249 74.6575 127.401 72.8085C125.552 70.9593 125.552 67.9618 127.401 66.1123L181.272 12.241C182.197 11.317 183.408 10.854 184.62 10.854Z" fill="white"/>
<path d="M133.25 10.854C134.462 10.854 135.674 11.3163 136.598 12.2418C138.447 14.0908 138.447 17.0885 136.598 18.937L99.6517 55.8823C97.8027 57.7313 94.8057 57.7313 92.9565 55.8823C91.1075 54.033 91.1075 51.0353 92.9565 49.186L129.903 12.241C130.827 11.317 132.039 10.854 133.25 10.854Z" fill="white"/>
<path d="M56.9999 122.153C46.6099 122.153 38.1577 130.605 38.1577 140.995C38.1577 151.384 46.6099 159.837 56.9999 159.837C67.3894 159.837 75.8424 151.384 75.8424 140.995C75.8424 130.605 67.3894 122.153 56.9999 122.153ZM56.9999 150.369C51.8317 150.369 47.6264 146.164 47.6264 140.996C47.6264 135.827 51.8314 131.622 56.9999 131.622C62.1684 131.622 66.3734 135.827 66.3734 140.996C66.3732 146.163 62.1682 150.369 56.9999 150.369Z" fill="white"/>
</svg>
