<svg width="201" height="201" viewBox="0 0 201 201" fill="none" xmlns="http://www.w3.org/2000/svg">
<path d="M142.063 49.0473C140.409 27.8335 122.619 11.077 100.987 11.077C79.3555 11.077 61.5653 27.8335 59.9116 49.0473C30.1513 56.4068 11.8313 71.114 11.8313 87.8903C11.8313 94.3258 14.4493 100.632 19.6113 106.634C24.3038 112.088 30.8683 117.012 39.1223 121.269C56.1285 130.038 78.1005 134.867 100.987 134.867C123.876 134.867 145.846 130.039 162.852 121.269C171.108 117.012 177.672 112.088 182.363 106.634C187.525 100.632 190.143 94.326 190.143 87.8903C190.143 71.114 171.823 56.4068 142.063 49.0473ZM69.2538 52.766C69.2538 52.7633 69.2538 52.7608 69.2538 52.7578V52.2785C69.2538 34.7805 83.4893 20.545 100.987 20.545C118.485 20.545 132.721 34.7805 132.721 52.2785V52.7553C132.721 52.7608 132.721 52.766 132.721 52.7723V67.5675C122.705 70.447 112.048 71.9055 100.987 71.9055C89.9265 71.9055 79.2695 70.4483 69.2538 67.5675V52.766ZM175.186 100.458C171.345 104.922 165.58 109.209 158.512 112.853C142.823 120.943 122.394 125.399 100.987 125.399C79.5808 125.399 59.1523 120.943 43.4623 112.853C36.395 109.209 30.6293 104.922 26.7893 100.458C23.147 96.2238 21.3008 91.995 21.3008 87.8903C21.3008 80.4655 27.4803 74.4785 32.663 70.7623C39.4858 65.8725 48.783 61.801 59.786 58.856V71.071C59.786 73.1243 61.1093 74.9443 63.0635 75.5763C74.9623 79.424 87.7215 81.3748 100.987 81.3748C114.253 81.3748 127.013 79.424 138.911 75.5763C140.865 74.9443 142.188 73.1243 142.188 71.071V58.856C153.192 61.801 162.489 65.8728 169.311 70.7623C174.494 74.4783 180.674 80.4655 180.674 87.8903C180.674 91.9955 178.828 96.2243 175.186 100.458Z" fill="#C5D4EB"/>
<path d="M129.442 103.971C123.218 105.349 116.799 106.258 110.36 106.674C107.28 106.872 104.945 109.53 105.143 112.611C105.335 115.569 107.792 117.84 110.715 117.84C110.835 117.84 110.958 117.836 111.079 117.827C118.089 117.375 125.079 116.384 131.859 114.883C134.873 114.215 136.774 111.23 136.106 108.217C135.44 105.204 132.455 103.302 129.442 103.971Z" fill="#C5D4EB"/>
<path d="M91.0098 106.539C84.2418 106.032 78.0415 105.065 72.0573 103.586C69.0625 102.845 66.032 104.674 65.2905 107.67C64.549 110.666 66.3775 113.696 69.3738 114.436C75.881 116.046 82.8788 117.139 90.1738 117.686C90.3158 117.696 90.4565 117.702 90.5973 117.702C93.4938 117.702 95.945 115.466 96.165 112.53C96.396 109.452 94.088 106.77 91.0098 106.539Z" fill="#C5D4EB"/>
<path d="M164.748 89.639C159.688 92.9245 153.991 95.8452 147.81 98.3225C144.945 99.471 143.553 102.724 144.702 105.589C145.577 107.772 147.675 109.1 149.891 109.1C150.584 109.1 151.287 108.971 151.968 108.698C158.821 105.952 165.169 102.693 170.836 99.0145C173.424 97.334 174.16 93.8725 172.479 91.2827C170.798 88.6945 167.337 87.9585 164.748 89.639Z" fill="#C5D4EB"/>
<path d="M54.121 97.2422C47.779 94.2829 42.2535 90.9274 37.1353 87.7442C34.5133 86.1139 31.0678 86.9164 29.4385 89.5379C27.808 92.1592 28.611 95.6049 31.2315 97.2354C36.6368 100.598 42.4925 104.15 49.3945 107.371C50.1593 107.728 50.9635 107.897 51.7543 107.897C53.8585 107.897 55.8743 106.702 56.8221 104.67C58.1281 101.873 56.9193 98.5472 54.121 97.2422Z" fill="#C5D4EB"/>
<path d="M66.4883 139.488C64.1108 138.401 61.3003 139.449 60.2146 141.827L41.5491 182.659C40.4621 185.037 41.5093 187.846 43.8871 188.933C44.5248 189.225 45.1941 189.363 45.8523 189.363C47.6481 189.363 49.3661 188.336 50.1608 186.596L68.8266 145.763C69.9136 143.385 68.8661 140.576 66.4883 139.488Z" fill="#C5D4EB"/>
<path d="M141.76 141.827C140.674 139.449 137.864 138.402 135.486 139.489C133.109 140.577 132.061 143.386 133.148 145.764L151.813 186.597C152.609 188.337 154.327 189.364 156.122 189.364C156.78 189.364 157.45 189.226 158.087 188.934C160.465 187.847 161.512 185.038 160.425 182.659L141.76 141.827Z" fill="#C5D4EB"/>
<path d="M100.987 139.061C98.3721 139.061 96.2528 141.181 96.2528 143.795V184.628C96.2528 187.242 98.3723 189.362 100.987 189.362C103.602 189.362 105.722 187.242 105.722 184.628V143.795C105.722 141.181 103.603 139.061 100.987 139.061Z" fill="#C5D4EB"/>
</svg>
