<svg width="201" height="201" viewBox="0 0 201 201" fill="none" xmlns="http://www.w3.org/2000/svg">
<path d="M182.833 65.52C178.343 54.9043 171.916 45.3713 163.732 37.1863C155.546 29.0013 146.012 22.5738 135.397 18.0843C126.748 14.4258 117.676 12.1928 108.34 11.404C108.276 11.398 108.213 11.3918 108.148 11.3878C105.682 11.185 103.198 11.077 100.697 11.077C88.6647 11.077 76.9895 13.434 65.996 18.0843C55.381 22.5738 45.848 29.0013 37.6627 37.1863C29.477 45.3713 23.0502 54.9043 18.56 65.52C13.9112 76.513 11.5535 88.188 11.5535 100.22C11.5535 112.252 13.9112 123.926 18.5607 134.92C23.051 145.536 29.4777 155.069 37.6635 163.254C45.8485 171.439 55.3815 177.866 65.9967 182.356C76.9902 187.006 88.6652 189.363 100.697 189.363C112.729 189.363 124.404 187.006 135.397 182.356C146.013 177.866 155.546 171.439 163.732 163.254C171.916 155.069 178.343 145.536 182.833 134.92C187.483 123.926 189.84 112.252 189.84 100.22C189.84 88.188 187.483 76.513 182.833 65.52ZM100.697 20.5458C101.701 20.5458 102.698 20.571 103.694 20.608C103.703 20.8475 103.713 21.0873 103.713 21.3278C103.713 31.557 95.3922 39.8795 85.1625 39.8795C77.2 39.8795 70.337 34.9215 67.7265 27.6938C77.7795 23.1055 88.945 20.5458 100.697 20.5458ZM142.59 167.962C137.212 164.759 133.841 158.951 133.841 152.576C133.841 142.7 141.877 134.666 151.753 134.666C158.324 134.666 164.219 138.187 167.362 143.799C160.971 153.544 152.503 161.809 142.59 167.962ZM172.501 134.733C170.976 132.961 169.233 131.369 167.277 130.02C162.699 126.865 157.331 125.196 151.754 125.196C136.656 125.196 124.373 137.479 124.373 152.576C124.373 160.46 127.754 167.771 133.393 172.873C123.411 177.382 112.343 179.894 100.697 179.894C56.7647 179.894 21.023 144.152 21.023 100.22C21.023 71.4285 36.3742 46.1558 59.3212 32.155C60.997 36.1455 63.5862 39.735 66.9197 42.597C71.9917 46.95 78.4705 49.348 85.163 49.348C100.546 49.348 113.069 36.885 113.177 21.5255C151.202 27.533 180.371 60.5328 180.371 100.22C180.371 112.577 177.543 124.285 172.501 134.733Z" fill="white"/>
<path d="M72.493 114.334C60.4847 114.334 50.715 124.104 50.715 136.112C50.715 148.12 60.485 157.889 72.493 157.889C84.501 157.889 94.271 148.12 94.271 136.112C94.271 124.104 84.5012 114.334 72.493 114.334ZM72.493 148.421C65.7057 148.421 60.1845 142.899 60.1845 136.112C60.1845 129.325 65.7057 123.804 72.493 123.804C79.2802 123.804 84.8017 129.325 84.8017 136.112C84.8017 142.899 79.2802 148.421 72.493 148.421Z" fill="white"/>
<path d="M57.0487 64.2877C48.5797 64.2877 41.6892 71.1775 41.6892 79.6472C41.6892 88.1162 48.58 95.0067 57.0487 95.0067C65.5185 95.0067 72.4082 88.1162 72.4082 79.6472C72.4085 71.1772 65.5187 64.2877 57.0487 64.2877ZM57.0487 85.5372C53.8012 85.5372 51.1587 82.8957 51.1587 79.6472C51.1587 76.3987 53.8012 73.7565 57.0487 73.7565C60.2977 73.7565 62.9395 76.399 62.9395 79.6472C62.9395 82.8952 60.2977 85.5372 57.0487 85.5372Z" fill="white"/>
<path d="M132.578 55.6587C119.396 55.6587 108.67 66.3832 108.67 79.5664C108.67 92.7489 119.395 103.474 132.578 103.474C145.761 103.474 156.487 92.7492 156.487 79.5664C156.487 66.3832 145.762 55.6587 132.578 55.6587ZM132.578 94.0054C124.616 94.0054 118.139 87.5284 118.139 79.5664C118.139 71.6047 124.616 65.1274 132.578 65.1274C140.54 65.1274 147.018 71.6047 147.018 79.5664C147.018 87.5282 140.54 94.0054 132.578 94.0054Z" fill="white"/>
</svg>
