<svg width="200" height="201" viewBox="0 0 200 201" fill="none" xmlns="http://www.w3.org/2000/svg">
<path d="M65.3001 18.0838C54.6843 22.5743 45.1513 29.001 36.9663 37.1853C28.7813 45.371 22.3538 54.9045 17.8643 65.5198C14.2058 74.1693 11.9728 83.2413 11.1841 92.577C11.1781 92.6405 11.1718 92.7043 11.1678 92.7685C10.9651 95.2348 10.8571 97.719 10.8571 100.22C10.8571 112.252 13.2141 123.928 17.8643 134.921C22.3538 145.536 28.7813 155.069 36.9663 163.254C45.1513 171.44 54.6843 177.867 65.3001 182.357C76.2931 187.006 87.9681 189.364 100 189.364C112.032 189.364 123.706 187.006 134.7 182.356C145.316 177.866 154.849 171.439 163.034 163.254C171.219 155.069 177.646 145.536 182.136 134.92C186.786 123.927 189.143 112.252 189.143 100.22C189.143 88.1875 186.786 76.5125 182.136 65.5195C177.646 54.9043 171.219 45.3705 163.034 37.185C154.849 29.0008 145.316 22.574 134.7 18.0835C123.706 13.4335 112.032 11.0765 100 11.0765C87.9681 11.0768 76.2931 13.4335 65.3001 18.0838ZM20.3258 100.22C20.3258 99.216 20.3511 98.2185 20.3881 97.223C20.6276 97.2143 20.8673 97.2035 21.1078 97.2035C31.3371 97.2035 39.6596 105.525 39.6596 115.755C39.6596 123.717 34.7016 130.58 27.4738 133.191C22.8856 123.138 20.3258 111.972 20.3258 100.22ZM167.742 58.327C164.539 63.7048 158.731 67.0755 152.356 67.0755C142.48 67.0755 134.446 59.0398 134.446 49.1638C134.446 42.593 137.967 36.6975 143.579 33.5548C153.324 39.946 161.589 48.4143 167.742 58.327ZM134.513 28.4158C132.741 29.9413 131.149 31.6838 129.8 33.6398C126.645 38.2178 124.976 43.5858 124.976 49.1633C124.976 64.2608 137.259 76.5435 152.356 76.5435C160.24 76.5435 167.551 73.1633 172.653 67.524C177.162 77.5058 179.674 88.5743 179.674 100.22C179.674 144.152 143.932 179.894 100 179.894C71.2086 179.894 45.9358 164.543 31.9351 141.596C35.9256 139.92 39.5151 137.331 42.3771 133.997C46.7301 128.925 49.1281 122.447 49.1281 115.754C49.1281 100.371 36.6651 87.8478 21.3056 87.7398C27.3131 49.7148 60.3128 20.5463 100 20.5463C112.357 20.5463 124.065 23.3738 134.513 28.4158Z" fill="#93C760"/>
<path d="M114.114 128.424C114.114 140.432 123.884 150.202 135.892 150.202C147.9 150.202 157.669 140.432 157.669 128.424C157.669 116.416 147.9 106.646 135.892 106.646C123.884 106.646 114.114 116.416 114.114 128.424ZM148.201 128.424C148.201 135.211 142.679 140.733 135.893 140.733C129.105 140.733 123.584 135.211 123.584 128.424C123.584 121.637 129.105 116.115 135.893 116.115C142.679 116.115 148.201 121.637 148.201 128.424Z" fill="#93C760"/>
<path d="M64.0677 143.868C64.0677 152.337 70.9575 159.228 79.4273 159.228C87.8963 159.228 94.7868 152.337 94.7868 143.868C94.7868 135.399 87.8963 128.509 79.4273 128.509C70.9573 128.509 64.0677 135.398 64.0677 143.868ZM85.3173 143.868C85.3173 147.116 82.6758 149.758 79.4273 149.758C76.1788 149.758 73.5365 147.116 73.5365 143.868C73.5365 140.619 76.179 137.978 79.4273 137.978C82.6753 137.978 85.3173 140.619 85.3173 143.868Z" fill="#93C760"/>
<path d="M55.4387 68.3387C55.4387 81.5212 66.1632 92.2474 79.3465 92.2474C92.529 92.2474 103.254 81.5217 103.254 68.3387C103.254 55.1557 92.5292 44.4302 79.3465 44.4302C66.1632 44.4302 55.4387 55.1552 55.4387 68.3387ZM93.7855 68.3387C93.7855 76.3007 87.3085 82.7779 79.3465 82.7779C71.3847 82.7779 64.9075 76.3007 64.9075 68.3387C64.9075 60.3767 71.3847 53.8994 79.3465 53.8994C87.3082 53.8994 93.7855 60.3767 93.7855 68.3387Z" fill="#93C760"/>
</svg>
