<svg width="201" height="200" viewBox="0 0 201 200" fill="none" xmlns="http://www.w3.org/2000/svg">
<path d="M68.3612 147.417C69.1945 145.167 66.632 140.896 62.2049 137.396C57.4757 133.656 52.3716 132.188 50.6528 134.042C50.5903 134.115 50.5487 134.156 50.5487 134.156C48.9445 136.187 51.5591 140.927 56.382 144.75C61.2153 148.573 66.4237 150.021 68.0278 147.99C68.1841 147.812 68.2882 147.625 68.3612 147.417ZM135.622 60.7188C135.642 60.6667 135.653 60.625 135.663 60.5833V60.5729C136.382 58.0833 132.163 54.6875 126.247 52.9896C120.33 51.2917 114.955 51.9271 114.236 54.4167C114.174 54.625 114.153 54.8437 114.163 55.0625C114.247 57.4583 118.236 60.4479 123.663 62C129.455 63.6667 134.736 63.0938 135.622 60.7188ZM178.278 100C178.278 119.427 171.132 137.187 159.319 150.792L158.726 151.562C159.382 152.458 160.028 153.135 160.403 153.51C158.872 152.729 155.611 154.198 152.747 157.063C149.684 160.125 148.215 163.646 149.403 165.021C149.132 164.729 148.07 163.646 146.59 162.656L145.569 163.26C132.924 172.229 117.465 177.51 100.778 177.51C57.9757 177.51 23.2778 142.812 23.2778 100.01C23.2778 83.7187 28.2987 68.6042 36.882 56.1354L38.382 54.3333C36.8612 51.4375 34.7674 49.1667 33.7987 48.1979C36.257 49.4583 41.4757 47.0938 46.0591 42.5104C50.9653 37.6042 53.3195 31.9583 51.4132 29.7604C51.9862 30.375 54.7987 33.25 58.4966 35.0312L59.7987 34.2187C71.6841 26.7917 85.7362 22.5 100.778 22.5C143.58 22.5 178.278 57.1979 178.278 100Z" fill="#BC2B22"/>
<path d="M160.403 153.51C160.549 153.583 160.674 153.667 160.778 153.781C162.09 155.094 160.622 158.698 157.497 161.812C154.372 164.937 150.778 166.406 149.465 165.094C149.465 165.094 149.455 165.083 149.445 165.062C149.434 165.052 149.424 165.031 149.403 165.021C148.215 163.646 149.684 160.125 152.747 157.062C155.611 154.198 158.872 152.719 160.403 153.51Z" fill="black"/>
<path d="M68.3611 147.417C68.2882 147.625 68.1736 147.812 68.0486 147.99C66.4444 150.021 61.2257 148.573 56.4027 144.75C51.5694 140.927 48.9652 136.187 50.5694 134.156C50.5694 134.156 50.6007 134.115 50.6736 134.042C52.3819 132.187 57.4861 133.646 62.2257 137.396C66.6319 140.896 69.1944 145.167 68.3611 147.417Z" fill="black"/>
<path d="M51.309 29.6354L51.3403 29.6666C51.3611 29.6875 51.3819 29.7187 51.4132 29.75L51.4236 29.7604C53.3299 31.9583 50.9757 37.5937 46.0694 42.5104C41.4861 47.0937 36.2674 49.4479 33.809 48.1979C33.5799 48.0833 33.3819 47.9375 33.2049 47.7604C31.1007 45.6562 33.4549 39.8958 38.4549 34.8958C43.4549 29.8958 49.2049 27.5208 51.309 29.6354Z" fill="black"/>
<path d="M114.163 55.0625C114.153 54.8437 114.184 54.625 114.236 54.4167C114.955 51.9271 120.33 51.2917 126.247 52.9896C132.163 54.6875 136.382 58.0833 135.663 60.5729V60.5833C135.653 60.6042 135.642 60.6458 135.622 60.7083V60.7188C134.747 63.0833 129.465 63.6667 123.663 62C118.236 60.4479 114.247 57.4687 114.163 55.0625Z" fill="black"/>
<path d="M38.382 54.3125L36.882 56.1146C28.2987 68.5937 23.2778 83.7083 23.2778 100C23.2778 142.802 57.9758 177.5 100.778 177.5C117.465 177.5 132.924 172.229 145.57 163.25L146.59 162.646" stroke="#2E2E2E" stroke-miterlimit="10" stroke-linecap="round" stroke-linejoin="round"/>
<path d="M58.4966 35.0208L59.7987 34.2083C71.6841 26.7917 85.7362 22.5 100.778 22.5C143.58 22.5 178.278 57.1979 178.278 100C178.278 119.427 171.132 137.187 159.319 150.792L158.726 151.562" stroke="#2E2E2E" stroke-miterlimit="10" stroke-linecap="round" stroke-linejoin="round"/>
<path d="M50.6632 134.042C52.3716 132.187 57.4757 133.646 62.2153 137.396C66.632 140.896 69.1945 145.167 68.3716 147.417C68.2987 147.625 68.1841 147.812 68.0591 147.99C66.4549 150.021 61.2361 148.573 56.4132 144.75C51.5799 140.927 48.9757 136.187 50.5799 134.156" stroke="#2E2E2E" stroke-miterlimit="10" stroke-linecap="round" stroke-linejoin="round"/>
<path d="M50.5591 134.156C50.5591 134.156 50.5903 134.115 50.6632 134.042C51.4028 133.167 55.9653 127.479 55.1528 121.979" stroke="#2E2E2E" stroke-miterlimit="10" stroke-linecap="round" stroke-linejoin="round"/>
<path d="M67.9757 147.927C67.9757 147.927 68.1111 147.74 68.3611 147.417C69.6111 145.833 73.757 141.083 78.7674 140.667" stroke="#2E2E2E" stroke-miterlimit="10" stroke-linecap="round" stroke-linejoin="round"/>
<path d="M135.622 60.7188C134.747 63.0833 129.465 63.6667 123.663 62C118.247 60.4375 114.247 57.4583 114.163 55.0625C114.153 54.8437 114.184 54.625 114.236 54.4167C114.955 51.9271 120.33 51.2917 126.247 52.9896C132.163 54.6875 136.382 58.0833 135.663 60.5729" stroke="#2E2E2E" stroke-miterlimit="10" stroke-linecap="round" stroke-linejoin="round"/>
<path d="M135.663 60.5834C135.653 60.625 135.642 60.6667 135.622 60.7084" stroke="#2E2E2E" stroke-miterlimit="10" stroke-linecap="round" stroke-linejoin="round"/>
<path d="M135.663 60.5729C135.653 60.6041 135.642 60.6458 135.622 60.7083V60.7187C135.278 61.802 133.205 68.8125 136.049 73.5833" stroke="#2E2E2E" stroke-miterlimit="10" stroke-linecap="round" stroke-linejoin="round"/>
<path d="M114.33 54.4479C114.33 54.4479 114.278 54.677 114.163 55.0625C113.611 57 111.58 62.9687 107.101 65.2708" stroke="#2E2E2E" stroke-miterlimit="10" stroke-linecap="round" stroke-linejoin="round"/>
<path d="M51.4132 29.75C53.3195 31.9479 50.9653 37.5833 46.0591 42.5C41.4757 47.0833 36.257 49.4375 33.7986 48.1875C33.5695 48.0729 33.3716 47.9271 33.1945 47.75C31.0903 45.6458 33.4445 39.8854 38.4445 34.8854C43.4445 29.8854 49.2049 27.5312 51.3091 29.6354" stroke="#2E2E2E" stroke-miterlimit="10" stroke-linecap="round" stroke-linejoin="round"/>
<path d="M51.33 29.6562C51.3612 29.6875 51.382 29.7083 51.4029 29.7396" stroke="#2E2E2E" stroke-miterlimit="10" stroke-linecap="round" stroke-linejoin="round"/>
<path d="M51.3091 29.6354L51.3403 29.6666C51.3612 29.6875 51.382 29.7187 51.4132 29.75L51.4237 29.7604C51.9966 30.375 54.8091 33.25 58.507 35.0312C60.3716 35.9375 62.4549 36.5625 64.6007 36.4895" stroke="#2E2E2E" stroke-miterlimit="10" stroke-linecap="round" stroke-linejoin="round"/>
<path d="M33.2675 47.6666C33.2675 47.6666 33.4654 47.8437 33.7987 48.177C34.7675 49.1458 36.8716 51.4166 38.382 54.3125C39.4237 56.3125 40.1945 58.5937 40.1216 60.9583" stroke="#2E2E2E" stroke-miterlimit="10" stroke-linecap="round" stroke-linejoin="round"/>
<path d="M149.403 165.01C148.215 163.635 149.684 160.115 152.747 157.052C155.611 154.188 158.872 152.719 160.403 153.5C160.549 153.573 160.674 153.656 160.778 153.771C162.09 155.083 160.622 158.688 157.497 161.802C154.372 164.927 150.778 166.396 149.465 165.083" stroke="#2E2E2E" stroke-miterlimit="10" stroke-linecap="round" stroke-linejoin="round"/>
<path d="M149.444 165.063C149.434 165.042 149.413 165.031 149.403 165.021" stroke="#2E2E2E" stroke-miterlimit="10" stroke-linecap="round" stroke-linejoin="round"/>
<path d="M149.465 165.083C149.465 165.083 149.455 165.073 149.445 165.052C149.434 165.042 149.424 165.021 149.403 165.01C149.132 164.719 148.07 163.635 146.59 162.646C145.101 161.646 143.174 160.74 141.174 160.802" stroke="#2E2E2E" stroke-miterlimit="10" stroke-linecap="round" stroke-linejoin="round"/>
<path d="M160.736 153.823C160.736 153.823 160.611 153.708 160.403 153.5C160.028 153.125 159.392 152.448 158.726 151.552C157.58 150 156.372 147.813 156.455 145.521" stroke="#2E2E2E" stroke-miterlimit="10" stroke-linecap="round" stroke-linejoin="round"/>
<path d="M137.549 125.25C135.559 123.594 137.132 118.417 141.07 113.677C145.007 108.938 149.809 106.448 151.799 108.094" stroke="#2E2E2E" stroke-miterlimit="10" stroke-linecap="round" stroke-linejoin="round"/>
<path d="M57.3403 72.5834C59.757 73.5105 59.9236 78.9271 57.7049 84.6667C55.4965 90.4063 51.7361 94.3125 49.3195 93.3855" stroke="#2E2E2E" stroke-miterlimit="10" stroke-linecap="round" stroke-linejoin="round"/>
<path d="M147.347 87.056C151.086 89.6142 154.589 92.5006 157.816 95.681C157.816 96.556 157.534 97.7435 157.222 97.8373C156.909 97.931 145.597 90.7123 145.784 89.8373C145.972 88.9623 146.784 86.7748 147.347 87.056Z" fill="#0D0827"/>
<path d="M149.173 78.0199C154.172 81.44 158.856 85.2989 163.169 89.5508C163.169 90.7206 162.793 92.3082 162.375 92.4335C161.958 92.5589 146.834 82.908 147.084 81.7382C147.335 80.5684 148.421 77.6439 149.173 78.0199Z" fill="#0D0827"/>
</svg>
