<svg width="119" height="144" viewBox="0 0 119 144" fill="none" xmlns="http://www.w3.org/2000/svg">
<path d="M53.1538 16.395C50.705 17.0605 47.511 20.3876 44.5032 25.0457C42.4091 27.886 41.2132 31.2883 41.0696 34.8142C41.4156 35.4797 43.0659 35.1603 43.5184 34.4948C43.9709 33.8294 43.8644 32.4985 45.9672 27.6275C48.0699 22.7566 54.2984 20.3078 54.6178 19.6423C54.9372 18.9769 54.0854 16.0224 53.1538 16.395ZM14.4522 85.2275C13.9997 83.7902 16.342 83.0183 16.6615 82.5658C16.9809 82.1133 17.8592 81.022 17.2204 80.9155C14.5587 80.3565 10.779 81.6874 11.4444 85.9196C12.1099 90.1517 16.4485 89.3532 17.1139 89.3532C17.7794 89.3532 17.5664 88.7942 17.1139 87.7029C16.6615 86.6116 14.9047 86.6116 14.4522 85.2275ZM109.503 37.3163C100.959 37.3163 100.746 44.1835 100.746 44.1835L89.7793 45.7274C89.7793 45.7274 75.1132 4.49707 71.9457 1.48931C68.7782 -1.51845 58.7967 1.64901 50.9978 5.1625C43.199 8.67599 29.0385 20.7869 22.3842 40.7499C18.5187 53.046 19.4116 66.3453 24.8862 78.0142L22.9964 79.8508C22.6679 79.217 22.2153 78.6558 21.6655 78.2005C20.4097 77.2689 18.9684 76.6181 17.4392 76.292C15.9099 75.966 14.3285 75.9723 12.8019 76.3107C11.6885 76.6861 10.6649 77.2879 9.79528 78.0781C8.92569 78.8682 8.229 79.8298 7.74901 80.9023C7.26902 81.9748 7.01612 83.1349 7.00621 84.3099C6.99629 85.4848 7.22958 86.6491 7.6914 87.7295C8.45434 89.5598 9.66652 91.168 11.2158 92.4056C12.7651 93.6432 14.6014 94.47 16.555 94.8098C17.1139 94.8098 26.084 116.104 26.084 116.104C19.0222 118.861 12.4928 122.824 6.78641 127.815C-0.879385 135.242 0.0256077 142.242 0.238546 143.014C0.451485 143.786 78.4403 143.573 79.2122 142.801C79.9841 142.029 80.0906 132.154 68.2459 122.385C56.4012 112.617 38.9668 113.735 38.9668 113.735L24.0877 88.1554L28.7457 85.2275C31.541 89.8649 34.9326 94.1156 38.8337 97.8708C48.877 106.722 61.2969 112.433 74.5542 114.294C93.1863 116.503 103.833 108.97 105.723 107.746C108.202 106.003 110.124 103.581 111.26 100.772C111.606 98.7757 95.7416 59.5151 95.6351 59.0626C98.3235 56.9619 101.142 55.0327 104.073 53.2867L106.735 54.0586C108.172 54.5111 115.598 54.2715 117.94 50.8379C120.283 47.4042 117.967 37.3163 109.503 37.3163ZM53.6063 119.83C69.0178 123.37 74.1283 138.462 73.3564 139.234C70.629 139.85 67.8071 139.922 65.0518 139.447C64.8389 138.995 58.0514 130.344 57.0666 130.131C56.0818 129.918 54.9638 130.344 55.4163 130.903C57.7646 133.546 59.9512 136.328 61.9642 139.234C61.5117 139.234 58.7435 139.234 58.7435 139.234C56.8056 136.757 54.6499 134.459 52.3021 132.367C51.6367 132.367 50.3058 133.245 50.8648 133.698C51.4237 134.15 56.1882 139.021 55.7357 139.021C55.2832 139.021 52.8611 139.021 52.8611 139.021C51.3471 137.325 49.7197 135.733 47.9901 134.257C47.4311 134.257 46.4463 134.922 46.5527 135.375C46.6592 135.827 49.9864 138.702 49.2145 139.048C48.4426 139.394 8.56978 138.462 6.9195 138.169C5.26922 137.877 9.58124 128.081 21.6655 122.758C33.7498 117.435 38.3014 116.21 53.7128 119.83H53.6063ZM27.3084 83.3909C26.5365 83.9499 21.1065 87.3835 21.426 88.049C21.7454 88.7144 36.9439 113.442 36.172 113.788C35.4001 114.134 28.1868 115.225 28.1868 115.225L18.7642 93.4789C18.7642 93.4789 20.6541 92.361 20.5476 91.8286C20.4411 91.2963 20.5476 90.2848 20.0951 90.3913C18.7872 91.1786 17.3072 91.6354 15.7831 91.7221C14.1328 91.5092 9.12874 89.0604 9.47477 84.6153C9.82079 80.1702 11.3646 79.0789 13.148 78.4135C14.0547 77.8772 15.0889 77.5943 16.1424 77.5943C17.1959 77.5943 18.2301 77.8772 19.1369 78.4135C21.4792 79.7443 21.7986 80.6227 21.5857 80.8623C21.3727 81.1018 19.1369 82.4061 19.4829 82.8586C19.8289 83.3111 19.9354 84.8549 20.7073 84.2959C21.4792 83.7369 25.4718 79.9839 26.0308 80.5162C26.5897 81.0486 28.0803 82.8319 27.3084 83.3909ZM96.7264 75.4057C96.7264 75.4057 83.4178 65.6371 83.4178 66.0896C83.4178 66.5421 82.4329 68.0859 82.8588 68.2989C83.2847 68.5118 97.1789 77.8279 97.6048 78.6264C98.0307 79.4249 103.381 91.3761 102.928 91.2696C102.476 91.1632 83.2048 77.2423 82.8854 77.5085C82.566 77.7746 81.7675 79.8508 82.22 80.1702C82.6725 80.4896 103.514 93.4789 104.073 94.4903C105.038 96.4096 105.822 98.4146 106.415 100.479C106.323 100.778 106.165 101.053 105.953 101.283C105.742 101.513 105.481 101.693 105.191 101.81C104.738 101.81 81.6876 86.5051 81.0222 86.7181C80.3568 86.931 79.4784 88.395 79.9043 88.7144C80.3302 89.0338 103.54 103.141 102.982 103.7C102.423 104.259 96.8862 107.027 96.8862 107.027C96.8862 107.027 78.0411 94.9162 77.4555 94.9162C76.8699 94.9162 75.8052 95.7946 76.1246 96.1406C76.444 96.4866 95.1028 107.799 94.5438 108.118C92.8299 108.854 91.0465 109.416 89.2204 109.795C88.3488 109.999 87.4515 110.071 86.5586 110.008C86.5586 110.008 73.9154 100.24 73.2499 100.24C72.5845 100.24 71.1472 101.118 71.9191 101.677C75.96 104.346 79.852 107.234 83.5775 110.328C74.3018 110.597 65.0979 108.625 56.7472 104.578C43.4385 98.1369 29.2515 82.4061 26.0308 68.0859C24.6115 60.5125 24.7554 52.7288 26.4536 45.213C28.1517 37.6972 31.3683 30.6078 35.9058 24.3802C44.5564 13.5204 57.7586 5.74808 67.3941 4.76324C68.8581 4.60354 86.2392 49.1344 86.2392 49.1344C86.2392 49.1344 82.3531 48.815 82.4595 49.1344C82.566 49.4538 82.1401 50.9177 82.6725 50.9177C83.2048 50.9177 86.878 51.2638 87.0111 51.6896C87.1442 52.1155 91.0037 61.6711 91.0037 61.6711C88.7431 60.4726 86.3939 59.4492 83.9767 58.6102C83.7638 58.9562 83.2048 60.0475 83.9767 60.6065C84.7486 61.1654 91.3497 64.1998 91.6425 64.7588C91.9353 65.3177 96.6732 75.4057 96.6732 75.4057H96.7264ZM112.031 51.2371C108.491 52.1155 104.499 50.1192 103.594 50.6782C100.719 52.7445 97.7237 54.6377 94.6237 56.3477C93.0356 53.7432 91.8426 50.9177 91.0836 47.9632C91.3231 47.4575 102.609 46.3129 102.955 45.6475C103.301 44.9821 103.727 37.6623 111.153 39.5521C118.579 41.442 115.598 50.3322 112.058 51.2371H112.031ZM68.2459 137.504C68.5919 137.85 69.9228 137.291 70.2422 136.732C68.0989 133.22 65.5334 129.984 62.603 127.097C61.8311 126.777 60.2074 127.602 60.6067 128.215C61.006 128.827 67.8999 137.185 68.2459 137.504ZM18.2319 128.853C16.7945 130.637 15.8629 132.952 16.2356 133.192C16.6536 133.382 17.1074 133.48 17.5664 133.48C18.0255 133.48 18.4793 133.382 18.8973 133.192C19.3498 132.979 19.1103 132.739 19.5627 131.302C20.0152 129.865 22.2245 128.64 22.5705 127.869C22.9165 127.097 21.7986 126.751 20.9202 126.644C20.0419 126.538 19.6692 127.097 18.2319 128.853ZM38.1949 128.401C38.047 127.495 37.6812 126.638 37.1289 125.904C36.5766 125.17 35.8544 124.582 35.0243 124.189C34.1943 123.796 33.2812 123.611 32.3638 123.649C31.4463 123.687 30.5518 123.948 29.7572 124.408C28.9105 124.699 28.1508 125.199 27.5484 125.861C26.946 126.523 26.5203 127.326 26.3106 128.197C26.101 129.067 26.1143 129.976 26.3491 130.84C26.584 131.704 27.033 132.494 27.6544 133.139C30.5291 137.398 39.2862 133.298 38.115 128.427L38.1949 128.401ZM30.9284 126.644C31.3572 126.396 31.8398 126.257 32.3347 126.236C32.8296 126.216 33.3219 126.316 33.7695 126.528C34.2171 126.741 34.6066 127.058 34.9045 127.454C35.2024 127.849 35.3999 128.311 35.4799 128.8C36.0655 131.462 31.3542 133.644 29.7838 131.302C29.4735 130.95 29.2531 130.529 29.1415 130.073C29.0298 129.618 29.0303 129.142 29.1428 128.687C29.2553 128.231 29.4765 127.81 29.7875 127.459C30.0985 127.108 30.49 126.837 30.9284 126.671V126.644ZM45.8341 126.937C48.0433 125.712 49.3742 123.29 48.2829 121.826C47.4298 121.07 46.3565 120.607 45.2209 120.507C44.0852 120.406 42.9473 120.673 41.9746 121.267C41.5794 121.41 41.2164 121.629 40.9069 121.913C40.5973 122.197 40.3473 122.54 40.1715 122.921C39.9956 123.303 39.8974 123.715 39.8825 124.135C39.8676 124.555 39.9363 124.974 40.0847 125.366C40.4041 126.99 43.6248 128.188 45.8341 126.99V126.937ZM44.3967 122.172C46.0204 121.826 47.0585 122.625 46.393 123.716C45.7276 124.808 43.5184 125.819 42.6134 125.047C41.7084 124.275 41.8415 122.758 44.3967 122.199V122.172Z" fill="white"/>
</svg>
