<svg width="200" height="200" viewBox="0 0 200 200" fill="none" xmlns="http://www.w3.org/2000/svg">
<path d="M92.6562 34.8125C89.7812 35.5938 86.0312 39.5 82.5 44.9688C80.0414 48.3035 78.6374 52.2979 78.4687 56.4375C78.875 57.2188 80.8125 56.8438 81.3437 56.0625C81.875 55.2813 81.75 53.7188 84.2187 48C86.6875 42.2813 94 39.4063 94.375 38.625C94.75 37.8438 93.75 34.375 92.6562 34.8125ZM47.2187 115.625C46.6875 113.938 49.4375 113.031 49.8125 112.5C50.1875 111.969 51.2187 110.688 50.4687 110.563C47.3437 109.906 42.9062 111.469 43.6875 116.438C44.4687 121.406 49.5625 120.469 50.3437 120.469C51.125 120.469 50.875 119.813 50.3437 118.531C49.8125 117.25 47.75 117.25 47.2187 115.625ZM158.812 59.375C148.781 59.375 148.531 67.4375 148.531 67.4375L135.656 69.25C135.656 69.25 118.437 20.8438 114.719 17.3125C111 13.7813 99.2812 17.5 90.125 21.625C80.9687 25.75 64.3437 39.9688 56.5312 63.4063C51.9929 77.8424 53.0413 93.4564 59.4687 107.156L57.25 109.313C56.8643 108.568 56.3329 107.91 55.6875 107.375C54.2131 106.281 52.521 105.517 50.7256 105.134C48.9302 104.752 47.0735 104.759 45.2812 105.156C43.974 105.597 42.7722 106.304 41.7513 107.231C40.7303 108.159 39.9124 109.288 39.3489 110.547C38.7853 111.806 38.4884 113.168 38.4768 114.548C38.4651 115.927 38.739 117.294 39.2812 118.563C40.1769 120.711 41.6001 122.6 43.419 124.052C45.2379 125.505 47.3939 126.476 49.6875 126.875C50.3437 126.875 60.875 151.875 60.875 151.875C52.5841 155.113 44.9182 159.765 38.2187 165.625C29.2187 174.344 30.2812 182.563 30.5312 183.469C30.7812 184.375 122.344 184.125 123.25 183.219C124.156 182.313 124.281 170.719 110.375 159.25C96.4687 147.781 76 149.094 76 149.094L58.5312 119.063L64 115.625C67.2818 121.07 71.2637 126.06 75.8437 130.469C87.635 140.861 102.217 147.565 117.781 149.75C139.656 152.344 152.156 143.5 154.375 142.063C157.285 140.016 159.542 137.173 160.875 133.875C161.281 131.531 142.656 85.4375 142.531 84.9063C145.687 82.4399 148.996 80.175 152.437 78.125L155.562 79.0313C157.25 79.5625 165.969 79.2813 168.719 75.25C171.469 71.2188 168.75 59.375 158.812 59.375ZM93.1875 156.25C111.281 160.406 117.281 178.125 116.375 179.031C113.173 179.754 109.86 179.839 106.625 179.281C106.375 178.75 98.4062 168.594 97.25 168.344C96.0937 168.094 94.7812 168.594 95.3125 169.25C98.0695 172.353 100.637 175.619 103 179.031C102.469 179.031 99.2187 179.031 99.2187 179.031C96.9436 176.123 94.4127 173.425 91.6562 170.969C90.875 170.969 89.3125 172 89.9687 172.531C90.625 173.063 96.2187 178.781 95.6875 178.781C95.1562 178.781 92.3125 178.781 92.3125 178.781C90.535 176.789 88.6243 174.921 86.5937 173.188C85.9375 173.188 84.7812 173.969 84.9062 174.5C85.0312 175.031 88.9375 178.406 88.0312 178.813C87.125 179.219 40.3125 178.125 38.375 177.781C36.4375 177.438 41.5 165.938 55.6875 159.688C69.875 153.438 75.2187 152 93.3125 156.25H93.1875ZM62.3125 113.469C61.4062 114.125 55.0312 118.156 55.4062 118.938C55.7812 119.719 73.625 148.75 72.7187 149.156C71.8125 149.563 63.3437 150.844 63.3437 150.844L52.2812 125.313C52.2812 125.313 54.5 124 54.375 123.375C54.25 122.75 54.375 121.563 53.8437 121.688C52.3082 122.612 50.5706 123.148 48.7812 123.25C46.8437 123 40.9687 120.125 41.375 114.906C41.7812 109.688 43.5937 108.406 45.6875 107.625C46.7521 106.995 47.9662 106.663 49.2031 106.663C50.44 106.663 51.6541 106.995 52.7187 107.625C55.4687 109.188 55.8437 110.219 55.5937 110.5C55.3437 110.781 52.7187 112.313 53.125 112.844C53.5312 113.375 53.6562 115.188 54.5625 114.531C55.4687 113.875 60.1562 109.469 60.8125 110.094C61.4687 110.719 63.2187 112.813 62.3125 113.469ZM143.812 104.094C143.812 104.094 128.187 92.625 128.187 93.1563C128.187 93.6875 127.031 95.5 127.531 95.75C128.031 96 144.344 106.938 144.844 107.875C145.344 108.813 151.625 122.844 151.094 122.719C150.562 122.594 127.937 106.25 127.562 106.563C127.187 106.875 126.25 109.313 126.781 109.688C127.312 110.063 151.781 125.313 152.437 126.5C153.57 128.753 154.491 131.107 155.187 133.531C155.079 133.882 154.894 134.205 154.645 134.475C154.397 134.745 154.091 134.957 153.75 135.094C153.219 135.094 126.156 117.125 125.375 117.375C124.594 117.625 123.562 119.344 124.062 119.719C124.562 120.094 151.812 136.656 151.156 137.313C150.5 137.969 144 141.219 144 141.219C144 141.219 121.875 127 121.187 127C120.5 127 119.25 128.031 119.625 128.438C120 128.844 141.906 142.125 141.25 142.5C139.238 143.364 137.144 144.023 135 144.469C133.977 144.708 132.923 144.792 131.875 144.719C131.875 144.719 117.031 133.25 116.25 133.25C115.469 133.25 113.781 134.281 114.687 134.938C119.432 138.071 124.001 141.461 128.375 145.094C117.485 145.41 106.679 143.095 96.875 138.344C81.25 130.781 64.5937 112.313 60.8125 95.5C59.1462 86.6085 59.3151 77.4701 61.3089 68.6462C63.3026 59.8222 67.079 51.499 72.4062 44.1875C82.5625 31.4375 98.0625 22.3125 109.375 21.1563C111.094 20.9688 131.5 73.25 131.5 73.25C131.5 73.25 126.937 72.875 127.062 73.25C127.187 73.625 126.687 75.3438 127.312 75.3438C127.937 75.3438 132.25 75.75 132.406 76.25C132.562 76.75 137.094 87.9688 137.094 87.9688C134.44 86.5616 131.682 85.3602 128.844 84.375C128.594 84.7813 127.937 86.0625 128.844 86.7188C129.75 87.375 137.5 90.9375 137.844 91.5938C138.187 92.25 143.75 104.094 143.75 104.094H143.812ZM161.781 75.7188C157.625 76.75 152.937 74.4063 151.875 75.0625C148.5 77.4885 144.983 79.7112 141.344 81.7188C139.479 78.6611 138.079 75.3437 137.187 71.875C137.469 71.2813 150.719 69.9375 151.125 69.1563C151.531 68.375 152.031 59.7813 160.75 62C169.469 64.2188 165.969 74.6563 161.812 75.7188H161.781ZM110.375 177C110.781 177.406 112.344 176.75 112.719 176.094C110.202 171.971 107.19 168.172 103.75 164.781C102.844 164.406 100.937 165.375 101.406 166.094C101.875 166.813 109.969 176.625 110.375 177ZM51.6562 166.844C49.9687 168.938 48.875 171.656 49.3125 171.938C49.8033 172.16 50.336 172.275 50.875 172.275C51.4139 172.275 51.9467 172.16 52.4375 171.938C52.9687 171.688 52.6875 171.406 53.2187 169.719C53.75 168.031 56.3437 166.594 56.75 165.688C57.1562 164.781 55.8437 164.375 54.8125 164.25C53.7812 164.125 53.3437 164.781 51.6562 166.844ZM75.0937 166.313C74.9201 165.248 74.4906 164.243 73.8422 163.381C73.1938 162.52 72.3459 161.829 71.3714 161.368C70.3968 160.907 69.3249 160.689 68.2477 160.734C67.1705 160.779 66.1203 161.085 65.1875 161.625C64.1934 161.966 63.3015 162.553 62.5943 163.33C61.887 164.108 61.3872 165.051 61.1411 166.073C60.895 167.095 60.9105 168.162 61.1863 169.176C61.462 170.19 61.9891 171.119 62.7187 171.875C66.0937 176.875 76.375 172.063 75 166.344L75.0937 166.313ZM66.5625 164.25C67.066 163.959 67.6326 163.795 68.2136 163.771C68.7946 163.748 69.3726 163.865 69.8982 164.114C70.4237 164.363 70.8809 164.736 71.2307 165.2C71.5804 165.665 71.8122 166.207 71.9062 166.781C72.5937 169.906 67.0625 172.469 65.2187 169.719C64.8544 169.306 64.5956 168.811 64.4646 168.276C64.3335 167.741 64.334 167.183 64.4661 166.648C64.5983 166.113 64.858 165.619 65.2231 165.207C65.5882 164.794 66.0478 164.477 66.5625 164.281V164.25ZM84.0625 164.594C86.6562 163.156 88.2187 160.313 86.9375 158.594C85.936 157.706 84.6758 157.163 83.3425 157.045C82.0093 156.926 80.6733 157.239 79.5312 157.938C79.0672 158.105 78.6411 158.362 78.2777 158.696C77.9143 159.029 77.6208 159.431 77.4143 159.879C77.2078 160.327 77.0925 160.812 77.075 161.304C77.0575 161.797 77.1382 162.289 77.3125 162.75C77.6875 164.656 81.4687 166.063 84.0625 164.656V164.594ZM82.375 159C84.2812 158.594 85.5 159.531 84.7187 160.813C83.9375 162.094 81.3437 163.281 80.2812 162.375C79.2187 161.469 79.375 159.688 82.375 159.031V159Z" fill="white"/>
</svg>
