<svg width="200" height="200" viewBox="0 0 200 200" fill="none" xmlns="http://www.w3.org/2000/svg">
<g clip-path="url(#clip0_4_328)">
<path d="M168.344 31.6563L169.875 33.25C173.97 37.5154 177.663 42.1496 180.906 47.0938C181.75 48.4063 182.594 49.7188 183.375 51.0938C191.579 65.071 196.136 80.8874 196.626 97.0873C197.116 113.287 193.523 129.35 186.178 143.797C178.833 158.245 167.972 170.612 154.594 179.762C141.217 188.912 125.752 194.549 109.625 196.156C95.3791 197.602 80.9901 195.855 67.5035 191.045C54.0168 186.234 41.7712 178.479 31.6563 168.344C27.7025 164.398 24.1052 160.11 20.9062 155.531C18.8354 152.613 16.9363 149.577 15.2187 146.438C10.7174 138.216 7.4332 129.384 5.46875 120.219C4.39794 115.165 3.72918 110.034 3.46875 104.875C3.46875 102.813 3.46875 100.781 3.46875 98.625C3.73972 83.2903 7.64775 68.2391 14.8713 54.7097C22.0949 41.1802 32.4275 29.5592 45.0192 20.8027C57.6108 12.0462 72.1016 6.40453 87.2993 4.34176C102.497 2.27898 117.967 3.8541 132.438 8.93752C134.625 9.71877 136.781 10.5938 138.906 11.5313C148.404 15.6967 157.163 21.3745 164.844 28.3438C166.031 29.4063 167.187 30.5 168.344 31.6563Z" fill="#EF9014"/>
<path opacity="0.1" d="M109.906 3.87503C98.5 29.4375 80.0312 65.4688 61.5625 78.6563C43.0938 91.8438 18.75 100.563 3.5 104.875C3.5 102.813 3.5 100.781 3.5 98.625C3.59567 91.2497 4.53937 83.9097 6.3125 76.75C21.6144 73.1534 36.0429 66.5341 48.75 57.2813C65.1875 45.5313 76.4375 23.4688 84.6875 4.56253C93.0268 3.22428 101.506 2.99311 109.906 3.87503Z" fill="#F7F6F8"/>
<path opacity="0.1" d="M164.844 28.3437C146.688 61.625 123.625 97.75 101.844 113.969C75.5 133.563 43.3437 147.375 20.9063 155.531C18.8354 152.613 16.9363 149.577 15.2187 146.438C10.7174 138.216 7.4332 129.384 5.46875 120.219C15.0625 118.75 47.2813 112.5 85.2813 84.1875C108.125 67.125 125.563 37.9688 138.906 11.5C148.406 15.6749 157.166 21.3634 164.844 28.3437Z" fill="#F7F6F8"/>
<path opacity="0.1" d="M183.344 51.0625C191.101 64.2394 195.601 79.0777 196.469 94.3438C181.844 123.75 160.531 162.5 138.656 188.562C129.436 192.597 119.64 195.159 109.625 196.156C98.9899 197.221 88.252 196.524 77.8438 194.094C86.3595 189.31 94.554 183.976 102.375 178.125C146 145.594 169.812 68.9375 183.344 51.0625Z" fill="#F7F6F8"/>
<path d="M138.375 11.2812C149.56 16.1367 159.727 23.06 168.344 31.6875C175.406 38.75 150.562 75.0937 112.812 112.937C75.0625 150.781 38.75 175.437 31.5625 168.469C25.076 161.992 19.5416 154.626 15.125 146.594C13.676 143.975 12.3617 141.284 11.1875 138.531C-1.31251 163.531 -4.03126 184.156 5.93749 194.125C15.9062 204.094 36.5937 201.313 61.5312 188.906C83.8125 177.75 109.562 158.875 134.062 134.344C158.562 109.813 177.594 83.9062 188.719 61.625C201.219 36.625 203.906 16 193.937 6.03124C183.969 -3.93751 163.312 -1.15626 138.375 11.2812Z" fill="#AA752E"/>
<g opacity="0.1">
<path d="M148.688 16.5C149.781 17.125 150.844 17.75 151.813 18.4688C167.063 11.5938 178.844 10.1563 184.375 15.625C189.906 21.0938 188.437 32.9063 181.562 48.0938C171.875 69.5625 151.344 97.7813 124.563 124.563C97.7813 151.344 69.5312 171.875 48.0937 181.531C32.9375 188.375 21.1562 189.844 15.625 184.375C10.0937 178.906 11.5625 167.094 18.4375 151.906C17.75 150.844 17.125 149.781 16.5 148.781C8.34375 166.219 6.78125 180.031 13.375 186.594C19.9687 193.156 33.75 191.719 51.125 183.469C72.5937 173.469 99.75 153.469 126.531 126.656C153.313 99.8438 173.406 72.75 183.312 51.25C191.437 33.8438 193 20.1563 186.437 13.4688C179.875 6.78129 166.125 8.37504 148.688 16.5Z" fill="#F7F6F8"/>
<path d="M157.187 22.0938C158.187 22.8125 159.187 23.5625 160.125 24.3125C167.031 22.3438 172.094 22.625 174.719 25.25C177.344 27.875 177.625 32.9375 175.625 39.875C170.656 57.5 151.25 87.125 119.187 119.188C87.125 151.25 57.5312 170.688 39.9062 175.656C32.9687 177.656 27.9062 177.375 25.2812 174.75C22.6562 172.125 22.375 167.063 24.3437 160.094C23.5625 159.156 22.8437 158.188 22.125 157.188C19.2187 166.188 19.375 173.094 23.1562 176.875C26.9375 180.656 33.8437 180.813 42.8125 177.875C62.375 171.625 91.875 150.844 121.375 121.344C150.875 91.8438 171.594 62.5 177.906 42.8125C180.812 33.8125 180.656 26.9063 176.875 23.125C173.094 19.3438 166.187 19.1875 157.187 22.0938Z" fill="#F7F6F8"/>
</g>
</g>
<defs>
<clipPath id="clip0_4_328">
<rect width="200" height="200" fill="white"/>
</clipPath>
</defs>
</svg>
