<svg width="304" height="200" viewBox="0 0 304 200" fill="none" xmlns="http://www.w3.org/2000/svg">
<g clip-path="url(#clip0_13_355)">
<path d="M152 0.000109706C158.096 0.00225076 164.187 0.242254 170.24 0.718857C209.477 3.83067 245.33 16.8745 270.195 37.0846C295.06 57.2946 306.983 83.0816 303.435 108.978C299.887 134.874 281.147 158.842 251.189 175.801C221.231 192.76 182.412 201.376 142.961 199.821C103.51 198.267 66.5305 186.664 39.8638 167.474C13.1972 148.284 -1.05987 123.015 0.115823 97.0253C1.29151 71.0358 17.8075 46.3694 46.1616 28.2565C74.5158 10.1436 112.478 0.00841668 152 0.000109706Z" fill="#8573CA"/>
<path d="M52.25 143.75C59.4614 143.756 66.4741 145.305 72.2308 148.163C77.9876 151.02 82.1761 155.031 84.1651 159.592C86.154 164.152 85.8354 169.014 83.2574 173.445C80.6793 177.876 75.9816 181.635 69.8725 184.156C51.5076 176.387 35.8923 166.113 24.0825 154.031C27.0688 150.888 31.2204 148.295 36.1475 146.497C41.0745 144.698 46.6154 143.753 52.25 143.75Z" fill="#674482"/>
<path d="M170.24 0.718954C201.917 3.21771 231.589 12.2289 255.027 26.469C253.316 30.9185 250.136 35.0654 245.712 38.6149C241.289 42.1644 235.732 45.0293 229.436 47.006C223.139 48.9827 216.258 50.0226 209.282 50.0519C202.306 50.0811 195.405 49.099 189.071 47.1753C182.737 45.2516 177.124 42.4335 172.633 38.9215C168.141 35.4094 164.881 31.2895 163.083 26.8546C161.285 22.4198 160.995 17.7789 162.232 13.2617C163.469 8.74464 166.203 4.46224 170.24 0.718954Z" fill="#674482"/>
<path d="M256.5 131.25C256.5 120.895 243.74 112.5 228 112.5C212.26 112.5 199.5 120.895 199.5 131.25C199.5 141.605 212.26 150 228 150C243.74 150 256.5 141.605 256.5 131.25Z" fill="#674482"/>
<path d="M85.5 75C85.5 68.0964 76.9934 62.5 66.5 62.5C56.0066 62.5 47.5 68.0964 47.5 75C47.5 81.9036 56.0066 87.5 66.5 87.5C76.9934 87.5 85.5 81.9036 85.5 75Z" fill="#674482"/>
<path d="M133 125C133 121.548 128.747 118.75 123.5 118.75C118.253 118.75 114 121.548 114 125C114 128.452 118.253 131.25 123.5 131.25C128.747 131.25 133 128.452 133 125Z" fill="#674482"/>
<path d="M199.5 81.25C199.5 77.7982 195.247 75 190 75C184.753 75 180.5 77.7982 180.5 81.25C180.5 84.7018 184.753 87.5 190 87.5C195.247 87.5 199.5 84.7018 199.5 81.25Z" fill="#674482"/>
<path d="M152 0.000109706C158.096 0.00225076 164.187 0.242254 170.24 0.718857C209.478 3.83067 245.33 16.8745 270.195 37.0846C295.06 57.2946 306.983 83.0816 303.435 108.978C299.887 134.874 281.147 158.842 251.189 175.801C221.232 192.76 182.412 201.376 142.961 199.821C103.51 198.267 66.5306 186.664 39.8639 167.474C13.1972 148.284 -1.05982 123.015 0.115869 97.0253C1.29156 71.0358 17.8075 46.3694 46.1617 28.2565C74.5159 10.1436 112.479 0.00841668 152 0.000109706Z" fill="#8573CA"/>
<path d="M52.25 143.75C59.4615 143.756 66.4742 145.305 72.2309 148.163C77.9876 151.02 82.1762 155.031 84.1651 159.592C86.154 164.152 85.8354 169.014 83.2574 173.445C80.6794 177.876 75.9817 181.635 69.8725 184.156C51.5076 176.387 35.8924 166.113 24.0825 154.031C27.0689 150.888 31.2204 148.295 36.1475 146.497C41.0746 144.698 46.6155 143.753 52.25 143.75Z" fill="#674482"/>
<path d="M170.24 0.718954C201.917 3.21771 231.589 12.2289 255.028 26.469C253.316 30.9185 250.136 35.0654 245.713 38.6149C241.289 42.1644 235.732 45.0293 229.436 47.006C223.139 48.9827 216.258 50.0226 209.282 50.0519C202.306 50.0811 195.405 49.099 189.071 47.1753C182.737 45.2516 177.124 42.4335 172.633 38.9215C168.141 35.4094 164.881 31.2895 163.083 26.8546C161.285 22.4198 160.995 17.7789 162.232 13.2617C163.469 8.74464 166.203 4.46224 170.24 0.718954Z" fill="#674482"/>
<path d="M256.5 131.25C256.5 120.895 243.74 112.5 228 112.5C212.26 112.5 199.5 120.895 199.5 131.25C199.5 141.605 212.26 150 228 150C243.74 150 256.5 141.605 256.5 131.25Z" fill="#674482"/>
<path d="M85.5 75C85.5 68.0964 76.9935 62.5 66.5 62.5C56.0066 62.5 47.5 68.0964 47.5 75C47.5 81.9036 56.0066 87.5 66.5 87.5C76.9935 87.5 85.5 81.9036 85.5 75Z" fill="#674482"/>
<path d="M133 125C133 121.548 128.747 118.75 123.5 118.75C118.253 118.75 114 121.548 114 125C114 128.452 118.253 131.25 123.5 131.25C128.747 131.25 133 128.452 133 125Z" fill="#674482"/>
<path d="M199.5 81.25C199.5 77.7982 195.247 75 190 75C184.753 75 180.5 77.7982 180.5 81.25C180.5 84.7018 184.753 87.5 190 87.5C195.247 87.5 199.5 84.7018 199.5 81.25Z" fill="#674482"/>
</g>
<defs>
<clipPath id="clip0_13_355">
<rect width="200" height="304" fill="white" transform="translate(7.62939e-06 200) rotate(-90)"/>
</clipPath>
</defs>
</svg>
