<svg width="201" height="200" viewBox="0 0 201 200" fill="none" xmlns="http://www.w3.org/2000/svg">
<g clip-path="url(#clip0_13_374)">
<path d="M100.115 200C96.1048 199.998 92.0977 199.758 88.1154 199.281C62.3013 196.169 38.7142 183.125 22.3555 162.915C5.99687 142.705 -1.84694 116.918 0.487303 91.0224C2.82155 65.1264 15.1503 41.1577 34.8594 24.1988C54.5684 7.23984 80.1079 -1.37577 106.062 0.178794C132.017 1.73336 156.345 13.3359 173.889 32.5261C191.433 51.7163 200.813 76.9852 200.039 102.975C199.266 128.964 188.4 153.631 169.746 171.744C151.092 189.856 126.116 199.992 100.115 200Z" fill="#8573CA"/>
<path d="M165.74 56.25C160.996 56.2435 156.382 54.6948 152.595 51.8373C148.808 48.9798 146.052 44.9685 144.744 40.4082C143.435 35.8478 143.645 30.9857 145.341 26.5549C147.037 22.124 150.128 18.3647 154.147 15.8437C166.229 23.6134 176.502 33.8866 184.272 45.9687C182.307 49.1122 179.576 51.7049 176.334 53.5033C173.093 55.3017 169.447 56.2468 165.74 56.25Z" fill="#674482"/>
<path d="M88.1154 199.281C67.275 196.782 47.7545 187.771 32.3342 173.531C33.4602 169.081 35.5525 164.935 38.4625 161.385C41.3724 157.836 45.0285 154.971 49.1709 152.994C53.3133 151.017 57.8402 149.977 62.43 149.948C67.0197 149.919 71.5595 150.901 75.7268 152.825C79.894 154.748 83.5864 157.566 86.5413 161.079C89.4963 164.591 91.6413 168.711 92.824 173.145C94.0067 177.58 94.1979 182.221 93.3841 186.738C92.5703 191.255 90.7715 195.538 88.1154 199.281Z" fill="#674482"/>
<path d="M31.3655 68.75C31.3655 79.1053 39.7601 87.5 50.1155 87.5C60.4708 87.5 68.8655 79.1053 68.8655 68.75C68.8655 58.3947 60.4708 50 50.1155 50C39.7601 50 31.3655 58.3947 31.3655 68.75Z" fill="#674482"/>
<path d="M143.865 125C143.865 131.904 149.462 137.5 156.365 137.5C163.269 137.5 168.865 131.904 168.865 125C168.865 118.096 163.269 112.5 156.365 112.5C149.462 112.5 143.865 118.096 143.865 125Z" fill="#674482"/>
<path d="M112.615 75C112.615 78.4518 115.414 81.25 118.865 81.25C122.317 81.25 125.115 78.4518 125.115 75C125.115 71.5482 122.317 68.75 118.865 68.75C115.414 68.75 112.615 71.5482 112.615 75Z" fill="#674482"/>
<path d="M68.8655 118.75C68.8655 122.202 71.6637 125 75.1155 125C78.5673 125 81.3655 122.202 81.3655 118.75C81.3655 115.298 78.5673 112.5 75.1155 112.5C71.6637 112.5 68.8655 115.298 68.8655 118.75Z" fill="#674482"/>
<path d="M100.115 200C96.1048 199.998 92.0977 199.758 88.1154 199.281C62.3013 196.169 38.7142 183.125 22.3555 162.915C5.99687 142.705 -1.84694 116.918 0.487303 91.0224C2.82155 65.1264 15.1503 41.1577 34.8594 24.1988C54.5684 7.23984 80.1079 -1.37577 106.062 0.178794C132.017 1.73336 156.345 13.3359 173.889 32.5261C191.433 51.7163 200.813 76.9852 200.039 102.975C199.266 128.964 188.4 153.631 169.746 171.744C151.092 189.856 126.116 199.992 100.115 200Z" fill="#8573CA"/>
<path d="M165.74 56.25C160.996 56.2435 156.382 54.6948 152.595 51.8373C148.808 48.9798 146.052 44.9685 144.744 40.4082C143.435 35.8478 143.645 30.9857 145.341 26.5549C147.037 22.124 150.128 18.3647 154.147 15.8437C166.229 23.6134 176.502 33.8866 184.272 45.9687C182.307 49.1122 179.576 51.7049 176.334 53.5033C173.093 55.3017 169.447 56.2468 165.74 56.25Z" fill="#674482"/>
<path d="M88.1154 199.281C67.275 196.782 47.7545 187.771 32.3342 173.531C33.4602 169.081 35.5525 164.935 38.4625 161.385C41.3724 157.836 45.0285 154.971 49.1709 152.994C53.3133 151.017 57.8402 149.977 62.43 149.948C67.0197 149.919 71.5595 150.901 75.7268 152.825C79.894 154.748 83.5864 157.566 86.5413 161.079C89.4963 164.591 91.6413 168.711 92.824 173.145C94.0067 177.58 94.1979 182.221 93.3841 186.738C92.5703 191.255 90.7715 195.538 88.1154 199.281Z" fill="#674482"/>
<path d="M31.3655 68.75C31.3655 79.1053 39.7601 87.5 50.1155 87.5C60.4708 87.5 68.8655 79.1053 68.8655 68.75C68.8655 58.3947 60.4708 50 50.1155 50C39.7601 50 31.3655 58.3947 31.3655 68.75Z" fill="#674482"/>
<path d="M143.865 125C143.865 131.904 149.462 137.5 156.365 137.5C163.269 137.5 168.865 131.904 168.865 125C168.865 118.096 163.269 112.5 156.365 112.5C149.462 112.5 143.865 118.096 143.865 125Z" fill="#674482"/>
<path d="M112.615 75C112.615 78.4518 115.414 81.25 118.865 81.25C122.317 81.25 125.115 78.4518 125.115 75C125.115 71.5482 122.317 68.75 118.865 68.75C115.414 68.75 112.615 71.5482 112.615 75Z" fill="#674482"/>
<path d="M68.8655 118.75C68.8655 122.202 71.6637 125 75.1155 125C78.5673 125 81.3655 122.202 81.3655 118.75C81.3655 115.298 78.5673 112.5 75.1155 112.5C71.6637 112.5 68.8655 115.298 68.8655 118.75Z" fill="#674482"/>
</g>
<defs>
<clipPath id="clip0_13_374">
<rect width="200" height="200" fill="white" transform="translate(200.115) rotate(90)"/>
</clipPath>
</defs>
</svg>
