<svg width="200" height="201" viewBox="0 0 200 201" fill="none" xmlns="http://www.w3.org/2000/svg">
<g clip-path="url(#clip0_4_315)">
<path d="M-1.22413e-05 100.5C0.00212943 96.4892 0.242133 92.4822 0.718737 88.4999C3.83056 62.6858 16.8744 39.0987 37.0845 22.74C57.2945 6.38133 83.0815 -1.46249 108.978 0.87176C134.874 3.20601 158.842 15.5348 175.801 35.2438C192.76 54.9529 201.376 80.4923 199.821 106.447C198.267 132.401 186.664 156.73 167.474 174.274C148.284 191.818 123.015 201.197 97.0252 200.424C71.0357 199.65 46.3693 188.784 28.2564 170.13C10.1434 151.476 0.00829074 126.501 -1.22413e-05 100.5Z" fill="#6B554E"/>
<path d="M143.75 166.125C143.756 161.381 145.305 156.767 148.163 152.98C151.02 149.192 155.031 146.437 159.592 145.128C164.152 143.82 169.014 144.029 173.445 145.725C177.876 147.421 181.635 150.512 184.156 154.531C176.387 166.613 166.113 176.887 154.031 184.656C150.888 182.692 148.295 179.96 146.497 176.719C144.698 173.477 143.753 169.832 143.75 166.125Z" fill="#3C3232"/>
<path d="M0.718707 88.4999C3.21747 67.6595 12.2286 48.139 26.4687 32.7187C30.9183 33.8447 35.0652 35.937 38.6147 38.8469C42.1641 41.7569 45.0291 45.413 47.0057 49.5554C48.9824 53.6977 50.0224 58.2247 50.0516 62.8144C50.0809 67.4042 49.0987 71.944 47.175 76.1112C45.2513 80.2785 42.4333 83.9708 38.9212 86.9258C35.4091 89.8808 31.2892 92.0258 26.8544 93.2085C22.4195 94.3911 17.7786 94.5823 13.2615 93.7686C8.74439 92.9548 4.46199 91.1559 0.718707 88.4999Z" fill="#3C3232"/>
<path d="M131.25 31.75C120.895 31.75 112.5 40.1447 112.5 50.5C112.5 60.8553 120.895 69.25 131.25 69.25C141.605 69.25 150 60.8553 150 50.5C150 40.1447 141.605 31.75 131.25 31.75Z" fill="#3C3232"/>
<path d="M75 144.25C68.0964 144.25 62.5 149.846 62.5 156.75C62.5 163.654 68.0964 169.25 75 169.25C81.9036 169.25 87.5 163.654 87.5 156.75C87.5 149.846 81.9036 144.25 75 144.25Z" fill="#3C3232"/>
<path d="M125 113C121.548 113 118.75 115.798 118.75 119.25C118.75 122.702 121.548 125.5 125 125.5C128.452 125.5 131.25 122.702 131.25 119.25C131.25 115.798 128.452 113 125 113Z" fill="#3C3232"/>
<path d="M81.25 69.25C77.7982 69.25 75 72.0482 75 75.5C75 78.9518 77.7982 81.75 81.25 81.75C84.7018 81.75 87.5 78.9518 87.5 75.5C87.5 72.0482 84.7018 69.25 81.25 69.25Z" fill="#3C3232"/>
</g>
<defs>
<clipPath id="clip0_4_315">
<rect width="200" height="200" fill="white" transform="translate(200 200.5) rotate(-180)"/>
</clipPath>
</defs>
</svg>
