<svg width="200" height="201" viewBox="0 0 200 201" fill="none" xmlns="http://www.w3.org/2000/svg">
<path d="M58.3333 50.4156H41.6666V33.749H58.3333V50.4156ZM141.667 50.4156H158.333V33.749H141.667V50.4156ZM191.667 100.416V150.416H175V117.082H158.333V150.416H141.667V133.749H58.3333V150.416H41.6666V117.082H25V150.416H8.33331V100.416H25V83.749H41.6666V67.0823H58.3333V50.4156H75V67.0823H125V50.4156H141.667V67.0823H158.333V83.749H175V100.416H191.667ZM125 83.749V100.416H141.667V83.749H125ZM58.3333 100.416H75V83.749H58.3333V100.416ZM91.6666 150.416H58.3333V167.082H91.6666V150.416ZM141.667 150.416H108.333V167.082H141.667V150.416Z" fill="#93C760"/>
</svg>
