<svg width="200" height="200" viewBox="0 0 200 200" fill="none" xmlns="http://www.w3.org/2000/svg">
<path d="M103.517 3.22677L100.848 0L98.1833 3.22677C79.7432 25.5487 69.1702 58.4298 69.1702 93.4414C69.1702 110.795 71.7005 127.495 76.6924 143.084C79.6745 152.385 87.2379 158.814 96.5563 160.334V172.631H103.451V160.489C113.535 159.503 121.854 152.936 125.011 143.08C130.003 127.494 132.533 110.792 132.533 93.4379C132.529 58.4298 121.953 25.5485 103.517 3.22677ZM100.848 10.9487C106.343 18.2571 110.994 26.6447 114.752 35.7871H86.9482C90.7025 26.6449 95.353 18.2573 100.848 10.9487ZM118.437 141.012C115.8 149.247 109.367 152.864 103.448 153.667V134.999H96.5528V153.329C91.1439 152.105 85.6487 148.468 83.2596 141.012C78.4816 126.095 76.0616 110.089 76.0616 93.4414C76.0616 75.4667 78.9573 58.1162 84.3354 42.6306H117.237V42.2927C122.694 57.8644 125.635 75.3359 125.635 93.4414C125.635 110.089 123.211 126.095 118.437 141.012ZM106.895 182.894H113.79V165.788H106.895V182.894ZM86.2106 182.894H93.1053V165.788H86.2106V182.894ZM96.5528 200H103.448V182.894H96.5528V200ZM100.303 66.2485C92.2985 66.2485 85.7866 72.7088 85.7866 80.6515C85.7866 88.5944 92.2987 95.0581 100.303 95.0581C108.308 95.0581 114.82 88.5942 114.82 80.6515C114.82 72.7088 108.308 66.2485 100.303 66.2485ZM100.303 88.2187C96.101 88.2187 92.6813 84.8263 92.6813 80.655C92.6813 76.4838 96.101 73.0914 100.303 73.0914C104.506 73.0914 107.926 76.4838 107.926 80.655C107.926 84.8227 104.506 88.2187 100.303 88.2187ZM136.339 107.903L135.884 113.802C135.094 124.03 132.988 135.258 129.958 145.411L128.934 148.844L165.5 157.818V127.657L136.339 107.903ZM158.606 149.075L137.552 143.911C139.662 136.182 141.255 127.998 142.186 120.148L158.606 131.273V149.075ZM63.5131 113.805L63.051 107.817L34.4998 127.688V157.828L70.7629 148.837L69.7424 145.411C67.4086 137.602 64.4369 125.778 63.5131 113.805ZM41.3945 149.065V131.245L57.2422 120.217C58.3591 129.032 60.3242 137.409 62.1409 143.925L41.3945 149.065Z" fill="white"/>
</svg>
