<svg width="200" height="200" viewBox="0 0 200 200" fill="none" xmlns="http://www.w3.org/2000/svg">
<g clip-path="url(#clip0_4_232)">
<path fill-rule="evenodd" clip-rule="evenodd" d="M118.713 112.505L99.9688 131.25L87.4727 143.746V162.49L68.7285 193.73L81.2246 199.978L124.961 156.242L118.713 112.505ZM87.4727 81.2651L43.7363 75.0171L0 118.753L6.24805 131.25L37.4883 112.505H56.2324L68.7285 100.009L87.4727 81.2651Z" fill="#CCCCCC"/>
<path d="M31.2403 137.498C18.9347 155.454 0.0812536 177.594 2.89353e-05 187.482C-0.0655756 194.989 4.92349 200.044 12.4961 199.978C22.5461 199.894 43.7707 181.137 62.4805 168.738L31.2403 137.498Z" fill="#FFCC66"/>
<path d="M49.9844 131.25C37.6789 149.206 12.4961 171.346 12.4961 181.234C12.4961 187.766 13.124 187.482 18.7441 187.482C28.7941 187.482 50.0187 162.393 68.7285 149.994L49.9844 131.25Z" fill="#ED7161"/>
<path d="M187.441 0.0405638C167.804 1.25581 133.902 3.59258 93.7207 43.7769C64.1643 73.3333 38.2349 116.31 26.0793 144.83L55.3421 174.092C83.702 162.056 126.395 136.061 156.201 106.257C196.123 66.3355 198.397 32.3149 199.938 12.5367C200.625 3.70817 195.608 -0.465528 187.441 0.0405638Z" fill="#387AA7"/>
<path d="M187.441 0.0405638C167.804 1.25581 133.902 3.59258 93.7207 43.7769C69.5908 67.9037 47.91 100.968 34.1206 127.829L72.343 166.051C99.0409 152.299 131.903 130.556 156.201 106.257C196.123 66.3355 198.397 32.3149 199.938 12.5367C200.625 3.70817 195.608 -0.465528 187.441 0.0405638Z" fill="#48A0DC"/>
<path d="M149.953 75.0171C163.756 75.0171 174.945 63.8277 174.945 50.0249C174.945 36.2221 163.756 25.0327 149.953 25.0327C136.15 25.0327 124.961 36.2221 124.961 50.0249C124.961 63.8277 136.15 75.0171 149.953 75.0171Z" fill="#4D4D4D"/>
<path d="M149.953 62.521C156.855 62.521 162.449 56.9263 162.449 50.0249C162.449 43.1235 156.855 37.5288 149.953 37.5288C143.052 37.5288 137.457 43.1235 137.457 50.0249C137.457 56.9263 143.052 62.521 149.953 62.521Z" fill="white"/>
</g>
<defs>
<clipPath id="clip0_4_232">
<rect width="200" height="199.978" fill="white"/>
</clipPath>
</defs>
</svg>
