<svg width="200" height="200" viewBox="0 0 200 200" fill="none" xmlns="http://www.w3.org/2000/svg">
<g clip-path="url(#clip0_4_293)">
<path d="M200 100C199.998 104.011 199.758 108.018 199.281 112C196.169 137.814 183.126 161.401 162.916 177.76C142.705 194.119 116.918 201.962 91.0225 199.628C65.1265 197.294 41.1578 184.965 24.1989 165.256C7.23994 145.547 -1.37568 120.008 0.178889 94.0532C1.73346 68.0987 13.336 43.7702 32.5262 26.2263C51.7164 8.68243 76.9853 -0.697193 102.975 0.0762867C128.964 0.849767 153.631 11.7155 171.744 30.3696C189.857 49.0236 199.992 73.9991 200 100Z" fill="#EBEFF1"/>
<path d="M56.25 34.375C56.2435 39.1193 54.6948 43.733 51.8373 47.5203C48.9798 51.3076 44.9685 54.0632 40.4082 55.3717C35.8478 56.6802 30.9857 56.4706 26.5549 54.7746C22.124 53.0785 18.3647 49.9879 15.8438 45.9687C23.6134 33.8866 33.8866 23.6134 45.9687 15.8438C49.1122 17.8084 51.7049 20.5397 53.5033 23.7812C55.3017 27.0227 56.2468 30.6681 56.25 34.375Z" fill="#CFD8DD"/>
<path d="M199.281 112C196.782 132.84 187.771 152.361 173.531 167.781C169.082 166.655 164.935 164.563 161.385 161.653C157.836 158.743 154.971 155.087 152.994 150.945C151.018 146.802 149.978 142.275 149.948 137.686C149.919 133.096 150.901 128.556 152.825 124.389C154.749 120.222 157.567 116.529 161.079 113.574C164.591 110.619 168.711 108.474 173.146 107.292C177.58 106.109 182.221 105.918 186.738 106.731C191.256 107.545 195.538 109.344 199.281 112Z" fill="#CFD8DD"/>
<path d="M68.75 168.75C79.1053 168.75 87.5 160.355 87.5 150C87.5 139.645 79.1053 131.25 68.75 131.25C58.3947 131.25 50 139.645 50 150C50 160.355 58.3947 168.75 68.75 168.75Z" fill="#CFD8DD"/>
<path d="M125 56.25C131.904 56.25 137.5 50.6536 137.5 43.75C137.5 36.8464 131.904 31.25 125 31.25C118.096 31.25 112.5 36.8464 112.5 43.75C112.5 50.6536 118.096 56.25 125 56.25Z" fill="#CFD8DD"/>
<path d="M75 87.5C78.4518 87.5 81.25 84.7018 81.25 81.25C81.25 77.7982 78.4518 75 75 75C71.5482 75 68.75 77.7982 68.75 81.25C68.75 84.7018 71.5482 87.5 75 87.5Z" fill="#CFD8DD"/>
<path d="M118.75 131.25C122.202 131.25 125 128.452 125 125C125 121.548 122.202 118.75 118.75 118.75C115.298 118.75 112.5 121.548 112.5 125C112.5 128.452 115.298 131.25 118.75 131.25Z" fill="#CFD8DD"/>
</g>
<defs>
<clipPath id="clip0_4_293">
<rect width="200" height="200" fill="white"/>
</clipPath>
</defs>
</svg>
