<svg width="172" height="152" viewBox="0 0 172 152" fill="none" xmlns="http://www.w3.org/2000/svg">
<path d="M23 41.7812C22.8125 41.4062 21.9687 39.5625 21.1562 40.125C20.6006 40.7925 20.2139 41.584 20.029 42.4326C19.844 43.2812 19.8662 44.1618 20.0937 45C20.9064 46.7289 22.2395 48.1603 23.9062 49.0937C24.3125 49.0937 24.875 48.3125 25.0937 47.7187C25.3125 47.125 24.0312 46.4375 23.25 44.7812C22.4687 43.125 23.1875 42.1875 23 41.7812ZM34.125 21.1875C32.396 22.2699 30.9071 23.6951 29.75 25.375C29.75 25.7812 31.7188 27.125 32.375 27.2187C33.0313 27.3125 33.25 26.0625 34.4375 24.875C35.625 23.6875 37.5625 24.5937 37.5625 24.5937C37.5625 24.5937 39.0312 23.0312 38.75 22.1562C38.4687 21.2812 36 20.4062 34.125 21.1875ZM52.375 35.0625C51.9147 38.0274 51.2676 40.9604 50.4375 43.8437C48.875 47.375 45.4688 51.375 45.4688 52.0625C45.4688 52.75 46.6563 52.9375 47.5313 52.75C48.4063 52.5625 50.0625 50.6875 52.2187 46.5C53.7919 43.183 54.7854 39.6211 55.1562 35.9687C55.0312 35.375 52.375 35.0312 52.375 35.0312V35.0625ZM56.6875 79.4062C53.7434 82.6675 51.0088 86.1119 48.5 89.7187C49.473 90.1828 50.5496 90.3874 51.625 90.3125C54.3668 87.2676 56.7568 83.9236 58.75 80.3437C58.5312 79.7812 57.0625 79.375 56.6875 79.375V79.4062ZM171.781 44.0937C167.944 43.5222 164.067 43.2609 160.188 43.3125C160.054 42.1337 159.704 40.9896 159.156 39.9375C158.283 38.9857 157.218 38.2296 156.031 37.7187L153.938 14.4062C153.938 14.4062 159.406 11.9375 159.281 7.62497C159.3 6.52856 159.069 5.4423 158.605 4.44865C158.141 3.455 157.457 2.58008 156.604 1.89029C155.752 1.20051 154.754 0.713991 153.685 0.467675C152.617 0.221359 151.506 0.221718 150.437 0.468724C148.874 0.727882 147.43 1.46988 146.309 2.5907C145.189 3.71152 144.447 5.15497 144.187 6.71872L125.437 11.8125C124.467 10.2057 123.072 8.89741 121.406 8.03122C120.351 7.56443 119.2 7.35611 118.049 7.42357C116.897 7.49102 115.778 7.83231 114.785 8.41906C113.792 9.00582 112.953 9.82111 112.338 10.7972C111.723 11.7733 111.35 12.882 111.25 14.0312C111.199 15.7411 111.562 17.438 112.307 18.9777C113.052 20.5174 114.158 21.8544 115.531 22.875L110.188 59.9687C107.3 60.0763 104.54 61.1805 102.375 63.0937C100.12 65.2439 98.8059 68.1979 98.7187 71.3125L91.5625 70.6562C88.4375 70.4062 80.875 69.625 80.875 69.625C80.7931 68.4368 80.5729 67.2621 80.2187 66.125C79.6875 64.6875 77.0937 63.25 77.0937 63.25L80.2187 49.8437C81.4911 49.142 82.5004 48.0451 83.0937 46.7187C83.4249 45.9737 83.5802 45.1625 83.5475 44.3479C83.5148 43.5333 83.2951 42.7371 82.9053 42.021C82.5156 41.305 81.9662 40.6882 81.2999 40.2185C80.6335 39.7488 79.8679 39.4388 79.0625 39.3125C77.7801 38.8392 76.3754 38.8131 75.0764 39.2386C73.7773 39.664 72.6602 40.516 71.9062 41.6562L67.25 40.4375C67.25 40.4375 68.9375 26.375 64.125 20C59.3125 13.625 45.375 10.625 35.75 11.4062C26.125 12.1875 19.5937 23.9062 19.5937 23.9062L15.9687 22.3437C16.1975 21.1478 16.1854 19.9182 15.9333 18.727C15.6811 17.5358 15.1938 16.4068 14.5 15.4062C12.1562 12.2812 4.84375 14.5312 2.5 17.5625C0.156251 20.5937 -0.90625 25.1875 3.46875 28.125C4.82821 28.9402 6.38359 29.3708 7.96875 29.3708C9.55391 29.3708 11.1093 28.9402 12.4688 28.125L15.5937 30.4687C14.1613 32.2504 12.9736 34.2158 12.0625 36.3125C10.4271 40.7607 10.4271 45.6455 12.0625 50.0937C14.6135 55.674 18.7979 60.3487 24.0625 63.5C28.9375 65.6562 43.1875 69.75 53.75 62.9062C60.2093 58.4785 64.7707 51.7869 66.5312 44.1562L71.4062 44.9375C71.5935 45.8964 71.9199 46.8229 72.375 47.6875C73.1041 48.9534 74.1914 49.9754 75.5 50.625L72.9687 62.9375C71.4303 63.3369 69.9999 64.0734 68.7812 65.0937C67.3511 66.1525 66.2642 67.6089 65.6562 69.2812C62.5248 69.2908 59.3959 69.4577 56.2812 69.7812C52.3623 70.4455 48.7652 72.3647 46.0312 75.25C42.625 78.375 31.9688 96.1562 31.9688 96.1562C30.0291 96.456 28.131 96.9804 26.3125 97.7187C19.8265 100.402 14.4327 105.19 11 111.312C8.36492 116.108 7.25249 121.591 7.81073 127.034C8.36897 132.477 10.5714 137.621 14.125 141.781C20.5625 149.094 31.125 150.562 58.75 151.156C86.375 151.75 109.937 151.437 123.094 151.437C136.25 151.437 143.219 150.156 148.375 145.687C152.381 142.153 155.271 137.528 156.692 132.378C158.113 127.228 158.003 121.776 156.375 116.687C152.281 102.25 141.812 100.562 141.812 100.562C140.296 97.5552 138.529 94.6805 136.531 91.9687C132.013 85.9635 127.15 80.2247 121.969 74.7812C122.04 71.7811 121.65 68.7878 120.812 65.9062C120.117 64.4476 119.137 63.143 117.93 62.0695C116.722 60.9961 115.311 60.1755 113.781 59.6562L119.063 24.5C121.354 24.2923 123.5 23.2857 125.125 21.6562C126.64 19.7471 127.376 17.3359 127.187 14.9062L144.469 10.375C144.469 10.375 144.469 10.9687 145.344 13C146.219 15.0312 150.219 14.6562 150.219 14.6562L151.781 37.5C150.358 38.0443 149.06 38.8738 147.969 39.9375C147.173 41.7726 146.759 43.75 146.75 45.75C146.75 45.75 139.719 45.5 138.156 45.75C136.594 46 136.719 47.0625 136.469 47.8437C136.219 48.625 142.719 69.3437 142.719 69.3437C142.719 69.3437 145.844 69.5937 146.5 68.6875C147.613 63.8964 148.365 59.0286 148.75 54.125C152.435 53.3676 156.178 52.9285 159.937 52.8125C159.937 52.8125 162.406 68.9687 163.062 69.625C163.719 70.2812 166.969 70.0312 167.375 69.0937C167.781 68.1562 172.187 44.75 171.781 44.0937ZM12.4062 22.0625C12.4051 22.8773 12.1747 23.6754 11.7415 24.3656C11.3082 25.0557 10.6896 25.6101 9.95629 25.9654C9.22295 26.3206 8.40447 26.4624 7.59436 26.3746C6.78425 26.2868 6.01517 25.9729 5.375 25.4687C1.1875 23.125 5.375 18.0625 7.625 17.6562C11.7813 16.9375 12.9375 19.0312 12.5312 22.0625H12.4062ZM35.1875 16.625C39.5937 15.4687 44.375 15.6562 45.25 21.2187C45.4555 26.1273 44.7563 31.0318 43.1875 35.6875L24.1562 25.8125C24.1562 25.8125 30.8125 17.75 35.1875 16.625ZM19.5625 28.0625C20.2187 28.0625 37.7187 36.375 37.7187 37.4375C37.7187 38.5 35.6562 43.3125 34.4062 43.0937C29.2073 39.0222 24.2509 34.6502 19.5625 30C18.5937 29.125 18.5937 27.9062 19.4687 28L19.5625 28.0625ZM19.2812 50.625C12.75 45.6562 19.2812 36.2812 20.0625 35.7812C20.0625 35.7812 34.7187 48.0937 34.5312 48.4687C34.3437 48.8437 25.7187 55.5625 19.1875 50.5625L19.2812 50.625ZM57.875 50.7812C52.3125 58.875 47.2187 60.75 41.875 61.125C38.294 61.5344 34.6672 61.2047 31.2188 60.1562C29.9375 59.5625 28.9688 58.0937 30.0625 57.7187C36.8605 54.575 42.4458 49.297 45.9688 42.6875C51.4375 32.3437 51.5312 21 52.2187 20.2187C54.3032 20.4983 56.2494 21.4181 57.7888 22.8511C59.3281 24.2841 60.3847 26.1596 60.8125 28.2187C62.3437 34.8437 63.4062 42.6562 57.875 50.7812ZM148.094 113.75C153.062 122.531 149.844 137.187 142.25 142.156C134.656 147.125 86.2812 145.969 66.2812 145.281C46.2812 144.594 26.9062 144.75 19.5625 138.656C12.2187 132.562 12.3437 122.062 17.25 114.719C22.1562 107.375 28.5625 100.75 49 99.5937C72.2507 98.8492 95.5247 99.3708 118.719 101.156C136.563 103.219 143.094 104.969 148.094 113.75ZM121.125 82.0312C124.438 86.5312 131.563 96.5 130.781 96.5937C129.989 96.664 129.191 96.5682 128.438 96.3125C127.938 96.125 119.656 85.375 118.875 85.2812C118.094 85.1875 115.75 86.1562 116.156 86.8437C116.563 87.5312 124.844 95.625 124.25 95.7187C122.83 95.9152 121.389 95.9152 119.969 95.7187C119.469 95.4375 113.219 86.9375 112.656 86.75C112.094 86.5625 109.25 87.4375 109.719 88.125C110.187 88.8125 117.156 95.4375 116.562 95.75C115.379 96.0937 114.121 96.0937 112.937 95.75C112.344 95.375 108.344 89.3125 107.469 89.125C106.594 88.9375 104.344 89.7187 104.844 90.5937C105.344 91.4687 108.937 95.375 108.469 95.375L39.4063 94.75C40.375 93.6875 49.75 77.9687 56.7812 75.625C63.8125 73.2812 95.9375 75.8125 106 76.7812C116.063 77.75 117.813 77.5312 121.125 82.0312ZM118.187 72.375C112.925 72.6127 107.658 72.0543 102.562 70.7187C102.818 68.6092 103.849 66.67 105.454 65.2781C107.06 63.8862 109.126 63.141 111.25 63.1875C118.094 63.5 119.75 71.75 118.187 72.3437V72.375ZM117.25 20.4062C114.719 18.6562 114.531 12.3125 118.312 11.0312C120.437 10.3125 123.281 12.0937 123.406 15.7187C123.531 19.3437 119.875 22.1562 117.25 20.4062ZM148.906 10.6562C147.531 8.90622 148.406 3.81247 151.844 3.34372C153.969 3.03122 155.938 6.28122 155.156 8.81247C154.375 11.3437 150.344 12.375 148.969 10.625L148.906 10.6562ZM153.406 40.3437C153.806 40.3368 154.203 40.4152 154.57 40.5737C154.937 40.7322 155.266 40.9671 155.535 41.2629C155.804 41.5586 156.007 41.9083 156.13 42.2887C156.254 42.6691 156.294 43.0714 156.25 43.4687C155.875 44.75 151.562 44.8437 151.062 44.3437C150.823 43.9294 150.698 43.4585 150.702 42.9799C150.705 42.5013 150.836 42.0323 151.082 41.6214C151.327 41.2104 151.678 40.8724 152.097 40.6423C152.517 40.4122 152.99 40.2983 153.469 40.3125L153.406 40.3437ZM165.625 58.8125C164.937 58.625 164.563 49.4375 163.469 49.25C157.309 49.3711 151.171 50.0298 145.125 51.2187C145.125 51.9062 145.125 59.2187 144.156 59.3125C143.187 59.4062 141.719 49.9375 141.719 48.875C141.719 48.875 151.094 47.8125 158.125 47.4062C165.156 47 168.469 46.625 168.375 47.4062C168.281 48.1875 166.344 58.9687 165.656 58.7812L165.625 58.8125ZM35.0938 105.469C19.4688 109.469 16.3437 123.156 20.25 131.156C24.1562 139.156 29.625 141.031 47.5937 142.5C65.5625 143.969 113.219 143.469 128.156 142.5C143.094 141.531 145.938 136.25 147.188 129.312C148.438 122.375 148.844 114.187 141.719 109.187C134.594 104.187 117.781 104.781 101.281 104.594C84.7812 104.406 41.8125 103.75 35.0938 105.469ZM55.5 127.75C52.375 139.375 35.1875 142.406 27.375 134.781C19.5625 127.156 20.0625 110.562 40.0625 108.812C42.4707 108.56 44.9038 108.911 47.1426 109.834C49.3814 110.756 51.3554 112.221 52.8869 114.097C54.4183 115.972 55.459 118.199 55.9152 120.577C56.3714 122.955 56.2287 125.41 55.5 127.719V127.75ZM129.344 109C131.748 108.763 134.174 109.126 136.403 110.057C138.632 110.989 140.595 112.459 142.116 114.336C143.637 116.213 144.668 118.439 145.117 120.812C145.566 123.186 145.418 125.635 144.687 127.937C141.562 139.562 124.375 142.594 116.562 134.969C108.75 127.344 109.312 110.812 129.344 109.062V109ZM100.719 127.937C97.5937 139.562 80.4062 142.594 72.5937 134.969C64.7812 127.344 65.2812 110.75 85.2812 109C87.7001 108.741 90.1452 109.092 92.3943 110.019C94.6433 110.946 96.6249 112.42 98.1589 114.308C99.6929 116.196 100.731 118.438 101.178 120.829C101.625 123.22 101.467 125.685 100.719 128V127.937ZM35.6875 118.562C34.9287 119.119 34.3054 119.84 33.8641 120.671C33.4228 121.502 33.1748 122.422 33.1388 123.363C33.1027 124.303 33.2795 125.239 33.6559 126.102C34.0323 126.964 34.5986 127.731 35.3125 128.344C39.5 132.531 47.625 128.937 45.9688 123.281C45.781 122.183 45.3269 121.148 44.6462 120.266C43.9655 119.385 43.0789 118.683 42.0642 118.224C41.0495 117.764 39.9376 117.56 38.8259 117.63C37.7142 117.7 36.6366 118.042 35.6875 118.625V118.562ZM81 118.969C80.2412 119.525 79.6179 120.246 79.1766 121.077C78.7353 121.908 78.4873 122.828 78.4513 123.769C78.4152 124.709 78.592 125.646 78.9684 126.508C79.3448 127.371 79.9111 128.137 80.625 128.75C84.8125 132.937 92.9375 129.344 91.2812 123.687C91.0935 122.589 90.6394 121.554 89.9587 120.673C89.278 119.791 88.3914 119.09 87.3767 118.63C86.362 118.17 85.2501 117.967 84.1384 118.037C83.0267 118.107 81.9491 118.448 81 119.031V118.969ZM136 123.312C135.814 122.216 135.364 121.183 134.687 120.301C134.01 119.419 133.127 118.717 132.116 118.254C131.105 117.792 129.997 117.584 128.887 117.649C127.777 117.713 126.7 118.048 125.75 118.625C124.991 119.182 124.368 119.902 123.927 120.733C123.485 121.565 123.237 122.485 123.201 123.425C123.165 124.365 123.342 125.302 123.718 126.164C124.095 127.027 124.661 127.793 125.375 128.406C129.531 132.594 137.625 129.125 136 123.312Z" fill="white"/>
</svg>
