<svg width="546" height="121" viewBox="0 0 546 121" fill="none" xmlns="http://www.w3.org/2000/svg">
<path d="M107.358 18.1586H60.0765V103.801H107.358V18.1586Z" fill="#76B63A"/>
<path d="M60.9672 18.0252H14.705V103.668H60.9672V18.0252Z" fill="#93C760"/>
<path d="M18.5486 113.125C13.9258 111.777 10.6113 108.397 9.43659 103.832C9.13942 102.677 9.11197 98.4602 9.1605 61.4133L9.21438 20.277L9.78042 18.726C11.1494 14.9747 14.1565 12.0311 17.8583 10.8185L19.3783 10.3206H60.8635H102.349L103.869 10.8185C107.573 12.0321 110.589 14.9856 111.941 18.726L112.502 20.277L112.616 29.9223C112.678 35.2273 112.681 53.9423 112.621 71.5113L112.513 103.455L111.954 104.986C110.605 108.678 107.785 111.503 104.107 112.845L102.556 113.411L61.1747 113.449C22.3212 113.485 19.7171 113.465 18.5486 113.125ZM56.9224 90.6982V86.446L48.7291 86.3422L40.5357 86.2385V82.4012V78.5638H60.9672H81.3987L81.4551 82.4506L81.5115 86.3375L73.2618 86.3917L65.012 86.446V90.6982V94.9504H73.4128H81.8135L81.8698 90.8581L81.926 86.7658L86.0183 86.7096L90.1106 86.6534L90.2143 78.4601L90.318 70.2667H94.1554H97.9928L98.0965 78.4601L98.2002 86.6534H102.452H106.705V74.1041V61.5548L102.66 61.4511L98.6151 61.3474L98.5113 57.3026L98.4076 53.2578L94.3628 53.1541L90.318 53.0503L90.2143 49.0055L90.1106 44.9607L86.0658 44.857L82.021 44.7533L81.9645 40.8685L81.9081 36.9836L86.0093 36.9274L90.1106 36.8711V32.6189V28.3666H85.8583H81.6061L81.5499 32.4589L81.4937 36.5512L77.4014 36.6075L73.3091 36.6637L73.2528 40.762L73.1966 44.8603L61.0147 44.8068L48.8328 44.7533L48.7291 40.7085L48.6253 36.6637L44.5805 36.56L40.5357 36.4563L40.432 32.4114L40.3283 28.3666H36.0761H31.8238V32.6189V36.8711L35.8686 36.9748L39.9134 37.0785V40.9159V44.7533L35.8686 44.857L31.8238 44.9607L31.7201 49.0055L31.6164 53.0503L27.5716 53.1541L23.5268 53.2578L23.4231 57.3026L23.3194 61.3474L19.2745 61.4511L15.2297 61.5548V74.1041V86.6534H19.482H23.7342L23.8379 78.4601L23.9416 70.2667H27.779H31.6164L31.7201 78.4601L31.8238 86.6534L35.8686 86.7571L39.9134 86.8608L39.9669 90.6982C39.9962 92.8088 40.0637 94.6533 40.1168 94.7972C40.1928 95.0031 41.9939 95.0473 48.5679 95.0047L56.9224 94.9504V90.6982ZM40.5259 61.1892C40.4687 61.04 40.4475 59.2878 40.4788 57.2953L40.5357 53.6726H44.3731H48.2105V57.51V61.3474L44.4203 61.4039C41.4494 61.4483 40.6075 61.4019 40.5259 61.1892ZM73.7123 61.1845C73.6561 61.0379 73.6357 59.2878 73.667 57.2953L73.7239 53.6726H77.5613H81.3987L81.4551 57.5619L81.5116 61.4511H77.6631C74.7195 61.4511 73.7906 61.3884 73.7123 61.1845Z" fill="#0D0827"/>
<path d="M120.516 83.9201V52.4201H129.516V65.9201H134.016V61.4201H138.516V56.9201H143.016V52.4201H152.016V56.9201H147.516V61.4201H143.016V65.9201H138.516V70.4201H143.016V74.9201H147.516V79.4201H152.016V83.9201H138.516V79.4201H134.016V74.9201H129.516V83.9201H120.516ZM161.016 83.9201V79.4201H156.516V65.9201H161.016V61.4201H183.516V65.9201H188.016V79.4201H183.516V83.9201H161.016ZM165.516 79.4201H179.016V65.9201H165.516V79.4201ZM192.516 83.9201V79.4201H215.016V74.9201H197.016V70.4201H192.516V65.9201H197.016V61.4201H219.516V65.9201H201.516V70.4201H219.516V74.9201H224.016V79.4201H219.516V83.9201H192.516ZM228.516 83.9201V61.4201H255.516V65.9201H260.016V83.9201H251.016V65.9201H246.516V83.9201H237.516V65.9201H233.016V83.9201H228.516ZM269.016 83.9201V79.4201H264.516V65.9201H269.016V61.4201H291.516V65.9201H296.016V79.4201H291.516V83.9201H269.016ZM273.516 79.4201H287.016V65.9201H273.516V79.4201ZM300.516 83.9201V52.4201H309.516V65.9201H323.016V52.4201H332.016V83.9201H323.016V70.4201H309.516V83.9201H300.516ZM341.016 83.9201V79.4201H336.516V61.4201H345.516V79.4201H359.016V61.4201H368.016V83.9201H341.016ZM372.516 83.9201V61.4201H399.516V65.9201H404.016V83.9201H395.016V65.9201H381.516V83.9201H372.516ZM422.016 83.9201V65.9201H413.016V61.4201H422.016V52.4201H431.016V61.4201H440.016V65.9201H431.016V83.9201H422.016ZM449.016 83.9201V79.4201H444.516V65.9201H449.016V61.4201H471.516V65.9201H476.016V74.9201H453.516V79.4201H471.516V83.9201H449.016ZM453.516 70.4201H467.016V65.9201H453.516V70.4201ZM494.016 65.9201H498.516V70.4201H494.016V83.9201H485.016V61.4201H494.016V65.9201ZM512.016 61.4201V65.9201H498.516V61.4201H512.016Z" fill="white"/>
</svg>
